<svg width="861" height="367" viewBox="0 0 861 367" fill="none" xmlns="http://www.w3.org/2000/svg">
<g clip-path="url(#clip0_1204_1534)">
<path d="M276.38 292.784H237.108V361.805H141.895V292.784H0V222.278L148.193 5.19514H237.108V220.794H276.38V292.784ZM141.895 220.794V179.233C141.895 171.44 142.265 161.05 142.636 147.691C143.377 134.332 143.747 127.652 144.117 126.91H141.524C135.967 139.527 129.669 151.03 122.63 162.163L83.3584 220.794H141.895Z" fill="#ECECEC"/>
<path d="M558.687 184.057C558.687 247.141 547.943 293.526 527.196 322.841C506.078 352.157 473.846 367 430.129 367C387.524 367 355.663 351.786 333.804 320.986C312.316 290.186 301.572 244.543 301.572 184.057C301.572 120.602 311.946 74.2164 333.434 44.5298C354.551 14.8433 386.783 0 430.5 0C472.735 0 504.967 15.5854 526.455 46.3852C547.943 77.185 558.687 122.828 558.687 184.057ZM397.157 184.057C397.157 224.505 399.75 252.336 404.566 267.179C409.753 282.393 417.904 289.815 429.759 289.815C441.614 289.815 450.136 282.022 455.322 266.437C460.139 250.851 462.732 223.391 462.732 184.057C462.732 144.351 460.139 116.891 455.322 100.934C450.136 84.9778 441.985 77.185 430.129 77.185C418.274 77.185 409.753 84.9778 404.937 100.192C399.75 115.406 397.157 143.238 397.157 184.057Z" fill="#ECECEC"/>
<path d="M861 292.784H821.729V361.805H726.515V292.784H584.621V222.278L732.813 5.19514H821.729V220.794H861V292.784ZM726.886 220.794V179.233C726.886 171.44 727.256 161.05 727.627 147.691C728.368 134.332 728.738 127.652 729.109 126.91H726.515C720.958 139.527 714.66 151.03 707.621 162.163L667.979 221.165H726.886V220.794Z" fill="#ECECEC"/>
</g>
<defs>
<clipPath id="clip0_1204_1534">
<rect width="861" height="367" fill="white"/>
</clipPath>
</defs>
</svg>
