<svg width="173" height="46" viewBox="0 0 173 46" fill="none" xmlns="http://www.w3.org/2000/svg">
<path fill-rule="evenodd" clip-rule="evenodd" d="M172.228 21.9207C171.64 19.3062 170.886 17.9731 168.842 15.9336C166.099 13.1946 155.17 8.06024 149.848 7.01015C148.674 6.77828 147.299 6.50551 146.791 6.4041C146.284 6.30222 145.717 6.42684 145.531 6.68103C145.318 6.97127 144.897 6.90658 144.398 6.50671C143.961 6.15708 142.87 5.8914 141.972 5.91693C141.041 5.94305 139.921 5.59718 139.364 5.11308C138.828 4.64567 138.381 4.45897 138.371 4.69856C138.36 4.93814 138.154 4.83636 137.913 4.47244C137.652 4.07683 136.101 3.67024 134.06 3.46128C132.181 3.26943 129.082 2.85928 127.174 2.55008C123.066 1.88482 96.2836 0.644861 95.4275 1.07978C95.1017 1.24545 92.2892 1.31817 89.1769 1.24194C86.0641 1.16521 83.0347 1.12075 82.4444 1.14276C81.8542 1.16476 79.3223 1.11626 76.8181 1.03513C70.7201 0.837167 69.6933 0.865684 68.9567 1.25674C68.6123 1.43998 66.4371 1.60439 64.1229 1.62249C56.3207 1.68406 43.4905 2.31176 34.4165 3.07585C32.496 3.23752 28.8647 3.74956 26.3471 4.21344C23.8294 4.67732 20.6213 5.20495 19.2187 5.38555C17.8156 5.56662 16.1219 6.03141 15.4551 6.41853C14.7883 6.80517 13.7051 7.10033 13.0485 7.07388C10.85 6.98531 3.81188 9.63194 2.05001 11.2102C-1.80264 14.6603 3.07257 26.9133 8.3832 27.1273C8.81217 27.1446 9.15821 27.3518 9.15238 27.5882C9.14657 27.8241 9.7676 28.1845 10.5319 28.3888C11.2967 28.5936 12.9105 29.1945 14.1176 29.7246C20.5116 32.5312 28.2401 34.658 35.7577 35.6795C42.1747 36.551 47.7594 37.9596 48.6404 38.9282C55.8074 46.8098 113.955 48.124 143.38 41.0698C144.714 40.7495 146.898 40.264 148.231 39.9905C163.833 36.7891 173.872 29.2295 172.228 21.9207ZM168.859 27.0935C167.747 28.858 166.012 30.5861 165.377 30.5606C165.22 30.5543 163.968 31.2629 162.595 32.1353C161.221 33.0077 159.882 33.7128 159.619 33.7021C159.355 33.6915 157.855 34.1419 156.285 34.7023C151.672 36.3498 151.498 36.3779 146.177 36.3559C143.377 36.3443 139.631 36.6117 137.853 36.9506C133.521 37.7761 123.207 38.9713 121.095 38.8924C119.07 38.8166 117.603 39.1995 117.936 39.716C118.505 40.5973 95.4921 40.6552 94.3939 39.7753C93.2105 38.8273 88.39 38.8018 87.2755 39.7381C86.0805 40.7421 75.3505 39.8495 53.4648 36.9244C50.3833 36.5125 49.5377 35.6288 49.5466 32.8301C49.5513 31.4611 49.2869 30.4649 48.8824 30.3247C47.9856 30.0153 46.375 33.31 46.7315 34.7249C47.043 35.963 46.15 36.4572 44.8195 35.7828C44.3562 35.5483 42.7972 35.1785 41.3551 34.9608C37.2291 34.3392 32.8985 33.2746 32.5591 32.7987C32.3886 32.56 31.1901 32.2452 29.8958 32.1001C26.6288 31.7338 24.71 31.2367 23.3751 30.4104C22.7478 30.0222 20.7981 29.2593 19.0423 28.7158C17.2866 28.1718 15.4947 27.4649 15.0603 27.1447C14.626 26.8241 13.3179 26.127 12.1532 25.5948C5.56692 22.5853 1.89344 15.6058 5.36244 12.692C6.66858 11.5948 14.466 9.22694 18.4629 8.71373C19.646 8.56188 22.4229 8.15085 24.6333 7.80085C26.8436 7.45038 29.8678 7.09798 31.3537 7.0176C32.8396 6.93722 34.785 6.61318 35.6774 6.29779C36.5697 5.98193 38.99 5.66304 41.0558 5.58819C43.1216 5.51383 45.7784 5.38423 46.9599 5.30026C53.5605 4.8322 60.4961 4.60848 70.2985 4.547C76.3439 4.5091 82.4975 4.42737 83.9733 4.36586C101.478 3.63251 135.622 6.20569 145.777 9.02307C153.104 11.0561 154.704 11.6247 160.541 14.27C162.08 14.9677 163.521 15.5458 163.743 15.5547C167.446 15.7039 170.993 23.7048 168.859 27.0935ZM98.4876 42.6453C98.2959 42.4607 98.4601 42.3228 98.8527 42.3386C99.2452 42.3544 99.4024 42.5053 99.202 42.6741C99.0011 42.8424 98.6798 42.8295 98.4876 42.6453ZM82.1371 42.629C73.2302 42.2702 72.3786 41.8913 80.9 42.0785C87.8065 42.2299 89.7385 42.3647 89.7303 42.694C89.7271 42.8264 86.3102 42.7972 82.1371 42.629ZM69.4129 41.7815C68.2257 41.749 67.0937 41.5685 66.8973 41.3799C66.7009 41.1912 67.826 41.0886 69.3968 41.1519C70.9676 41.2152 72.0997 41.3957 71.9119 41.5534C71.7247 41.7112 70.6001 41.8134 69.4129 41.7815Z" fill="#63AB77"/>
</svg>
