<svg width="296" height="20" viewBox="0 0 296 20" fill="none" xmlns="http://www.w3.org/2000/svg">
<path d="M124.019 6.29425L123.591 4.56114C123.283 3.46905 122.927 3.2079 120.814 3.18415H120.766V13.2504C120.766 13.4404 120.885 13.5116 121.431 13.5828L122.499 13.6778L122.547 14.39H116.778L116.825 13.6778L117.894 13.5828C118.392 13.5353 118.558 13.4166 118.558 13.2267V3.18415H118.511C116.469 3.18415 115.994 3.3266 115.662 4.4187L115.163 6.29425H114L114.332 2.37695H125.111V6.27051H124.019V6.29425Z" fill="white"/>
<path d="M131.687 14.4138L131.735 13.7015L132.162 13.6541C132.708 13.6066 132.827 13.4879 132.827 13.2979V9.38065C132.827 7.48135 132.233 6.95904 131.118 6.95904C130.382 6.95904 129.646 7.31516 129.194 7.67128V13.2979C129.194 13.4879 129.313 13.6066 129.93 13.6541L130.524 13.7015L130.571 14.4138H126.061L126.108 13.7015L126.607 13.6541C127.058 13.6066 127.271 13.5116 127.271 13.2979V3.51657C127.271 3.23167 127.176 3.06549 127.01 2.97052L125.847 2.47196L125.894 1.94965L129.171 1V6.84034H129.266C130.287 6.0094 131.331 5.43961 132.376 5.43961C132.946 5.43961 133.563 5.65328 133.99 6.08062C134.489 6.60293 134.726 7.31516 134.726 8.26481V13.2742C134.726 13.4404 134.821 13.5591 135.51 13.6303L135.961 13.6778L136.008 14.39H131.687V14.4138Z" fill="white"/>
<path d="M142.798 7.83671C142.299 7.83671 141.943 7.52807 141.706 7.14821C141.16 7.48059 140.424 8.1216 139.925 9.04751V13.2972C139.925 13.4871 140.044 13.6058 140.661 13.6533L141.35 13.7008L141.397 14.413H136.791L136.839 13.7008L137.337 13.6533C137.788 13.6058 138.002 13.5109 138.002 13.2972V8.54894C138.002 7.33814 137.86 7.17195 137.171 6.98203L136.744 6.88706L136.767 6.34101L139.925 5.48633V7.93167H140.02C140.97 6.34101 141.658 5.48633 142.608 5.48633C143.391 5.48633 143.866 5.98489 143.866 6.72087C143.842 7.3144 143.486 7.83671 142.798 7.83671Z" fill="white"/>
<path d="M148.852 14.6985C146.169 14.6985 144.555 12.6568 144.555 10.1165C144.555 7.52868 146.621 5.43945 149.256 5.43945C151.891 5.43945 153.553 7.40997 153.553 9.85532C153.553 12.5143 151.535 14.6985 148.852 14.6985ZM150.443 6.93515C150.182 6.65025 149.683 6.2704 148.971 6.2704C147.665 6.2704 146.668 7.50494 146.668 9.54668C146.668 11.1136 146.929 12.4669 147.618 13.2028C147.879 13.464 148.377 13.8438 149.113 13.8438C150.372 13.8438 151.393 12.5856 151.393 10.5676C151.416 9.04812 151.131 7.62364 150.443 6.93515Z" fill="white"/>
<path d="M164.426 14.3189L161.174 14.675V13.2981H161.079C160.034 14.129 159.013 14.6988 157.945 14.6988C157.399 14.6988 156.782 14.4851 156.354 14.0578C155.832 13.5355 155.618 12.8232 155.618 11.8736L155.666 6.86419C155.666 6.55555 155.523 6.60303 154.835 6.50807L154.408 6.46059L154.36 5.74835H157.66L157.541 10.7815C157.518 12.657 158.135 13.1793 159.251 13.1793C159.987 13.1793 160.723 12.8232 161.174 12.4909V6.84045C161.174 6.65052 161.055 6.55555 160.438 6.48433L159.773 6.43685L159.702 5.72461H163.073V12.8945C163.073 13.1794 163.144 13.393 163.334 13.4405L164.474 13.7966L164.426 14.3189Z" fill="white"/>
<path d="M172 7.00637V7.10134C172.237 7.45746 172.451 7.86106 172.451 8.47833C172.451 10.3064 170.955 11.6834 168.866 11.6834C168.486 11.6834 168.059 11.6359 167.726 11.5409C167.465 11.6596 167.038 12.0158 167.038 12.3719C167.038 12.8942 167.513 13.2266 168.272 13.2266C169.08 13.2266 169.934 13.1791 170.599 13.1791C172.19 13.1791 173.424 14.3187 173.424 15.8144C173.424 17.8324 171.359 19.3993 168.32 19.3993C166.231 19.3993 164.83 18.5209 164.83 17.1439C164.83 15.9806 165.661 15.3633 166.706 14.9597V14.8885C165.922 14.6985 165.376 14.0338 165.376 13.3453C165.376 12.5618 166.088 11.7784 167.038 11.446C167.038 11.351 167.085 11.351 167.085 11.351C166.112 10.8999 165.376 10.0927 165.376 8.66826C165.376 6.88767 166.753 5.43945 168.961 5.43945C169.887 5.43945 170.623 5.67687 171.335 5.9855H174.042L174.018 7.33875L172 7.00637ZM170.077 15.0546C169.436 15.0072 168.724 15.0546 167.465 15.0546C167.157 15.1971 166.492 15.7431 166.492 16.5978C166.492 17.7611 167.56 18.5683 169.198 18.5683C170.718 18.5683 171.786 17.7137 171.786 16.6216C171.786 15.7194 171.335 15.1496 170.077 15.0546ZM169.934 6.60277C169.649 6.34162 169.317 6.17543 168.937 6.17543C167.964 6.17543 167.275 7.00637 167.275 8.4071C167.275 9.35675 167.536 10.1402 168.011 10.5913C168.272 10.8287 168.557 10.9712 168.89 10.9712C169.341 10.9712 169.721 10.8287 169.982 10.5913C170.362 10.2352 170.552 9.57042 170.552 8.62077C170.575 7.74235 170.362 7.03011 169.934 6.60277Z" fill="white"/>
<path d="M179.882 14.4138L179.929 13.7015L180.357 13.6541C180.903 13.6066 181.021 13.4879 181.021 13.2979V9.38065C181.021 7.48135 180.428 6.95904 179.312 6.95904C178.576 6.95904 177.84 7.31516 177.389 7.67128V13.2979C177.389 13.4879 177.508 13.6066 178.125 13.6541L178.719 13.7015L178.766 14.4138H174.255L174.303 13.7015L174.801 13.6541C175.252 13.6066 175.466 13.5116 175.466 13.2979V3.51657C175.466 3.23167 175.371 3.06549 175.205 2.97052L174.042 2.47196L174.089 1.94965L177.365 1V6.84034H177.46C178.481 6.0094 179.526 5.43961 180.57 5.43961C181.14 5.43961 181.757 5.65328 182.185 6.08062C182.683 6.60293 182.921 7.31516 182.921 8.26481V13.2742C182.921 13.4404 183.016 13.5591 183.704 13.6303L184.155 13.6778L184.203 14.39H179.882V14.4138Z" fill="white"/>
<path d="M194.649 9.61802C194.174 9.61802 193.676 9.57054 193.201 9.5468V13.2742C193.201 13.4641 193.343 13.5353 193.889 13.6065L194.934 13.7015L194.981 14.4137H189.545L189.592 13.7015L190.352 13.6065C190.827 13.5591 191.017 13.4404 191.017 13.2504V3.51653C191.017 3.35034 190.898 3.25538 190.304 3.18415L189.592 3.08919L189.545 2.37695H194.72C197.902 2.37695 199.54 3.80143 199.54 5.65324C199.54 8.24103 197.284 9.61802 194.649 9.61802ZM194.53 3.18415H193.201V8.69212C193.628 8.78708 194.056 8.83456 194.554 8.83456C196.097 8.83456 197.189 7.76621 197.189 6.0331C197.189 4.29999 196.168 3.18415 194.53 3.18415Z" fill="white"/>
<path d="M204.668 14.6985C201.985 14.6985 200.371 12.6568 200.371 10.1165C200.371 7.52868 202.436 5.43945 205.072 5.43945C207.707 5.43945 209.369 7.40997 209.369 9.85532C209.345 12.5143 207.351 14.6985 204.668 14.6985ZM206.259 6.93515C205.998 6.65025 205.499 6.2704 204.787 6.2704C203.481 6.2704 202.484 7.50494 202.484 9.54668C202.484 11.1136 202.745 12.4669 203.433 13.2028C203.695 13.464 204.193 13.8438 204.929 13.8438C206.187 13.8438 207.208 12.5856 207.208 10.5676C207.208 9.04812 206.923 7.62364 206.259 6.93515Z" fill="white"/>
<path d="M213.737 14.6991C212.74 14.6991 211.695 14.5567 210.959 14.248L210.864 11.7077H212.004L212.455 13.4171C212.859 13.6783 213.405 13.8919 213.927 13.8919C214.782 13.8919 215.66 13.3459 215.66 12.4437C215.66 11.5653 214.615 11.2092 213.523 10.8056C212.17 10.2833 210.912 9.73722 210.912 8.02785C210.912 6.65086 212.075 5.39258 214.164 5.39258C215.043 5.39258 215.66 5.53502 216.159 5.72495L216.871 5.4638L216.99 8.26526H215.898L215.446 6.60338C215.067 6.34223 214.521 6.17604 214.046 6.17604C213.191 6.17604 212.574 6.6746 212.574 7.38684C212.574 8.24152 213.31 8.55016 214.615 9.04872C215.945 9.54729 217.298 10.1408 217.298 11.8264C217.298 13.3934 216.016 14.6991 213.737 14.6991Z" fill="white"/>
<path d="M218.628 14.4142L218.675 13.7019L219.15 13.6545C219.601 13.607 219.815 13.512 219.815 13.2983V8.5501C219.815 7.3393 219.672 7.17311 218.984 6.98318L218.58 6.88821L218.604 6.34217L221.738 5.48748V13.3221C221.738 13.512 221.857 13.6307 222.474 13.6782L222.949 13.7257L222.996 14.4379H218.628V14.4142ZM220.598 3.96804C219.839 3.96804 219.387 3.37451 219.387 2.68602C219.387 2.02126 219.839 1.42773 220.598 1.42773C221.358 1.42773 221.809 2.02126 221.809 2.68602C221.809 3.37451 221.382 3.96804 220.598 3.96804Z" fill="white"/>
<path d="M227.412 14.699C226.035 14.699 225.014 13.8681 225.038 11.9213L225.156 6.91192L223.637 6.79322L223.661 6.1522L226.272 3.87305L227.032 3.99175L227.008 5.77234H230.142L230 6.8407H227.008L226.89 11.3753C226.842 12.8235 227.531 13.2746 228.504 13.2746C229.002 13.2746 229.62 13.1084 230.118 12.8235L230.19 13.3458C229.525 14.153 228.456 14.699 227.412 14.699Z" fill="white"/>
<path d="M231.091 14.4142L231.139 13.7019L231.614 13.6545C232.065 13.607 232.278 13.512 232.278 13.2983V8.5501C232.278 7.3393 232.136 7.17311 231.447 6.98318L231.044 6.88821L231.068 6.34217L234.201 5.48748V13.3221C234.201 13.512 234.32 13.6307 234.937 13.6782L235.412 13.7257L235.46 14.4379H231.091V14.4142ZM233.086 3.96804C232.326 3.96804 231.875 3.37451 231.875 2.68602C231.875 2.02126 232.326 1.42773 233.086 1.42773C233.845 1.42773 234.296 2.02126 234.296 2.68602C234.296 3.37451 233.845 3.96804 233.086 3.96804Z" fill="white"/>
<path d="M245.455 6.43685L244.933 6.55555C244.387 6.62678 244.197 6.91167 243.841 7.83758L241.253 14.5563H239.995L237.074 7.29153C236.861 6.81671 236.695 6.67426 236.149 6.60303L235.697 6.46059L235.626 5.72461H240.208L240.161 6.43685L239.591 6.57929C239.235 6.62678 239.045 6.84045 239.211 7.29153L241.205 12.5621L242.939 7.76635C243.223 7.00664 243.2 6.698 242.63 6.60303L242.036 6.46059L241.989 5.74835H245.574L245.455 6.43685Z" fill="white"/>
<path d="M249.752 14.6982C247.473 14.6982 245.811 12.8701 245.811 10.3773C245.811 7.52838 247.805 5.46289 250.393 5.46289C252.245 5.46289 253.527 6.60247 253.527 8.4068C253.527 8.71544 253.48 9.14278 253.408 9.47516L247.805 9.40393V9.6176C247.829 11.7781 248.992 13.2025 250.654 13.2025C251.509 13.2025 252.387 12.8464 253.028 12.0867L253.432 12.3241C252.767 13.8198 251.438 14.6982 249.752 14.6982ZM250.013 6.22261C249.016 6.22261 248.043 7.07729 247.853 8.71544C247.853 8.71544 251.557 8.69169 251.509 8.69169C251.58 7.14852 250.963 6.22261 250.013 6.22261Z" fill="white"/>
<path d="M269.291 14.4137H259.368L259.415 13.7015L260.175 13.6065C260.65 13.5591 260.84 13.4404 260.84 13.2504V3.51653C260.84 3.35034 260.721 3.25538 260.127 3.18415L259.415 3.08919L259.368 2.37695H269.339V6.15181H268.223L267.772 4.4187C267.44 3.27912 267.131 3.18415 263.807 3.18415H263.024V7.88491H263.522C264.804 7.88491 265.184 7.83743 265.35 7.36261L265.801 6.08058H266.68L266.253 10.4727H265.398L265.232 9.2619C265.184 8.83456 264.994 8.71586 263.451 8.71586H263V13.6065H263.736C267.226 13.6065 267.606 13.4641 267.986 12.372L268.437 10.7813H269.648L269.291 14.4137Z" fill="white"/>
<path d="M279.975 6.43654L279.429 6.55525C278.906 6.62647 278.693 6.91137 278.336 7.83727L276.057 13.8201L275.013 16.9064C274.467 18.5683 273.849 19.3992 272.71 19.3992C271.879 19.3992 271.333 18.9482 271.333 18.2597C271.333 17.6899 271.665 17.1913 272.354 17.1913C272.971 17.1913 273.327 17.5474 273.541 17.9035C273.826 17.7611 274.016 17.405 274.324 16.574L275.013 14.7222V14.651L271.594 7.31497C271.357 6.86388 271.238 6.72144 270.668 6.62647L270.241 6.48402L270.169 5.74805H274.68L274.633 6.46028L274.111 6.60273C273.731 6.65021 273.541 6.86388 273.754 7.31497L275.915 12.2531L277.482 7.78979C277.743 7.00633 277.672 6.72144 277.054 6.62647L276.485 6.48402L276.437 5.77179H280.093L279.975 6.43654Z" fill="white"/>
<path d="M284.153 14.6982C281.874 14.6982 280.212 12.8701 280.212 10.3773C280.212 7.52838 282.207 5.46289 284.794 5.46289C286.646 5.46289 287.928 6.60247 287.928 8.4068C287.928 8.71544 287.881 9.14278 287.81 9.47516L282.207 9.40393V9.6176C282.23 11.7781 283.394 13.2025 285.056 13.2025C285.91 13.2025 286.789 12.8464 287.43 12.0867L287.833 12.3241C287.169 13.8198 285.839 14.6982 284.153 14.6982ZM284.415 6.22261C283.417 6.22261 282.444 7.07729 282.254 8.71544C282.254 8.71544 285.958 8.69169 285.91 8.69169C285.982 7.14852 285.364 6.22261 284.415 6.22261Z" fill="white"/>
<path d="M292.415 14.6991C291.418 14.6991 290.373 14.5567 289.637 14.248L289.542 11.7077H290.682L291.133 13.4171C291.537 13.6783 292.083 13.8919 292.605 13.8919C293.46 13.8919 294.338 13.3459 294.338 12.4437C294.338 11.5653 293.293 11.2092 292.201 10.8056C290.848 10.2833 289.59 9.73722 289.59 8.02785C289.59 6.65086 290.753 5.39258 292.842 5.39258C293.721 5.39258 294.338 5.53502 294.837 5.72495L295.549 5.4638L295.667 8.26526H294.599L294.148 6.60338C293.768 6.34223 293.222 6.17604 292.747 6.17604C291.893 6.17604 291.275 6.6746 291.275 7.38684C291.275 8.24152 292.011 8.55016 293.317 9.04872C294.647 9.54729 296 10.1408 296 11.8264C295.952 13.3934 294.694 14.6991 292.415 14.6991Z" fill="white"/>
<path opacity="0.6" fill-rule="evenodd" clip-rule="evenodd" d="M8.69986 13.7059C9.0515 13.9345 9.34083 14.1834 9.69195 14.5974V14.6288C9.66131 14.691 9.3925 14.7737 9.36134 14.7224C8.97889 14.2044 8.59644 13.9345 8.15219 13.7784C8.14163 13.7473 8.67918 13.6437 8.69986 13.7059ZM6.41468 14.5974C7.68699 13.0732 9.15466 13.0425 9.73358 13.0732C10.5084 13.1253 10.974 13.3422 11.2943 13.4261C11.7189 13.5398 12.4837 13.7577 13.331 13.271C12.6074 14.2145 11.7387 14.2977 10.7467 14.0069C10.0436 13.8095 8.06902 12.9177 6.74572 14.7224C6.70426 14.7737 6.36352 14.6708 6.41468 14.5974ZM7.97615 13.3226C7.92897 13.3266 7.82138 13.3736 7.71233 13.428L7.67387 13.4475C7.53335 13.5195 7.40197 13.5969 7.40745 13.6024C6.52874 13.5398 5.76384 13.8925 5.36044 14.0069C4.35788 14.2977 3.49985 14.2145 2.77598 13.271C3.61357 13.7577 4.38886 13.5398 4.80222 13.4261C5.13317 13.3422 5.58764 13.1253 6.37331 13.0732C6.69413 13.052 7.2836 13.0425 7.97615 13.3226ZM19.8209 1.2987V8.86556C19.8209 10.3998 20.5858 12.3875 22.915 12.3875C25.2446 12.3875 26.0092 10.3998 26.0092 8.86556V1.2987H27.678V9.12707C27.678 11.9862 25.6093 13.9564 22.915 13.9564C20.2207 13.9564 18.152 11.9862 18.152 9.12707V1.2987H19.8209ZM73.3319 0.984692C74.6706 0.984692 75.9568 1.26396 76.8784 2.39689L75.5225 3.63501C75.1052 2.99 74.2882 2.55381 73.3319 2.55381C71.4897 2.55381 70.9334 3.66993 70.9334 4.43695C70.9334 7.55761 77 5.69232 77 10.1381C77 12.527 75.0876 13.9564 72.724 13.9564C71.1419 13.9564 69.6298 13.4162 68.7952 12.2479L70.1685 11.0621C70.7593 11.9689 71.785 12.3872 72.776 12.3872C73.8711 12.3872 75.227 11.6898 75.227 10.3301C75.227 7.48803 69.1604 9.2489 69.1604 4.43695C69.1604 2.99 70.3769 0.984692 73.3319 0.984692ZM62.0032 1.2987C67.2004 1.2987 68.4699 5.18681 68.4699 7.47035C68.4699 10.6262 66.1226 13.6426 61.7252 13.6426H57.7095V1.2987H62.0032ZM56.0023 1.2987V13.6426H54.3333V1.2987H56.0023ZM31.6276 1.2987L38.407 11.4458H38.4418V1.2987H40.1109V13.6426H37.9898L31.141 3.49551H31.1061V13.6426H29.4373V1.2987H31.6276ZM48.0561 1.2987L53.3235 13.6426H51.3764L50.1424 10.5916H44.2839L43.0674 13.6426H41.1205L46.5439 1.2987H48.0561ZM12.7934 10.7718C12.5556 11.0829 12.6692 11.2384 12.4836 11.7671C12.3075 12.285 11.9152 12.6177 11.6664 12.8974C11.9663 12.6899 12.4836 12.5237 12.9798 12.4201C13.4653 12.3062 14.086 12.2542 14.7575 11.6635C14.5826 11.9332 14.1266 12.6071 13.3414 12.9078C12.7622 13.1357 12.0079 12.9799 11.2635 13.1566C11.5532 12.7106 11.5737 12.379 11.8634 11.8291C12.07 11.456 12.3075 11.1551 12.7934 10.7718ZM3.31369 10.7718C3.79957 11.1551 4.03748 11.456 4.23411 11.8291C4.52336 12.379 4.55392 12.7106 4.83363 13.1566C4.09945 12.9799 3.33412 13.1357 2.75546 12.9078C1.97992 12.6071 1.51481 11.9332 1.34959 11.6635C2.01107 12.2542 2.63127 12.3062 3.1174 12.4201C3.6134 12.5237 4.13035 12.6899 4.4407 12.8974C4.1924 12.6177 3.79957 12.285 3.6134 11.7671C3.43763 11.2384 3.54097 11.0829 3.31369 10.7718ZM9.30124 6.71392C9.54858 7.14691 9.84898 7.67148 10.1458 8.18923L10.2032 8.28933C10.8431 9.40555 11.4491 10.4603 11.4491 10.4603L10.6146 12.7941C9.56308 10.9366 8.8535 9.67245 8.25484 8.5933C8.69586 7.79854 9.03907 7.19502 9.30124 6.71392ZM8.86712 2.08561C9.345 2.25901 10.0888 3.04857 10.151 3.41748C10.2189 3.98898 9.92995 4.89567 9.19791 6.24128C8.81486 6.94553 8.00571 8.41561 7.16403 9.92428L7.07977 10.0752L6.99538 10.2263L6.91095 10.3773C6.43254 11.2325 5.95633 12.0767 5.55393 12.7776L4.71939 10.4436C4.71939 10.4436 5.27979 9.45354 5.84413 8.46308L5.90682 8.35308C6.36627 7.54712 6.81465 6.7652 6.95095 6.54266C6.9787 6.49732 7.01138 6.44171 7.04785 6.37809L7.07271 6.33451C7.18277 6.14072 7.32242 5.88414 7.46456 5.61879L7.49739 5.55743C7.82591 4.94271 8.15661 4.30342 8.15661 4.30342C8.5938 3.37863 8.93318 2.51753 8.86712 2.08561ZM8.07234 8.85933C8.08443 8.88085 8.09762 8.90501 8.11073 8.92832V8.97835L8.14189 8.97715C8.38657 9.41937 8.78375 10.1436 9.19049 10.8863L9.25006 10.9951L9.30967 11.1039L9.21672 11.114L9.18556 11.0409L9.08206 11.0209L9.00962 10.906L8.68964 10.6993V10.5122L8.77221 10.481L8.78217 10.3156L8.6001 10.171L8.43096 10.1915L8.2551 10.2019H8.11073V11.3614L8.31724 11.3525L8.54451 11.3421L8.78217 11.3109L8.99974 11.2697L9.22693 11.2172L9.35011 11.1797C9.36262 11.2022 9.37496 11.2251 9.38764 11.2479L9.2477 11.2899L9.02034 11.3421L8.7929 11.3838L8.55524 11.4147L8.31724 11.4355H8.11073V12.4368C8.73042 12.4334 9.32653 12.3286 9.88441 12.1404C9.90612 12.1801 9.92732 12.2187 9.9486 12.2579C9.3616 12.4584 8.7334 12.569 8.07966 12.569C7.4135 12.569 6.77398 12.4544 6.17796 12.2469C6.19941 12.208 6.22111 12.1692 6.24316 12.1294C6.80735 12.3236 7.41035 12.4319 8.03829 12.4366V11.4355H7.84166L7.604 11.4147L7.36609 11.3838L7.13881 11.3421L6.91102 11.2899L6.74155 11.2413C6.75414 11.2188 6.76683 11.1962 6.77943 11.1735L6.93171 11.2172L7.15949 11.2697L7.3763 11.3109L7.61387 11.3421L7.84166 11.3525L8.03829 11.3608V10.2019H7.90363L7.72802 10.1915L7.55199 10.1702L7.36174 10.1287C7.37426 10.1057 7.38703 10.0829 7.39962 10.0603L7.57293 10.0974L7.73832 10.1181L7.90363 10.1292H8.03829V9.9302L7.89367 9.98373L7.67635 9.94173L7.45921 9.97306C7.45921 9.97306 7.58549 9.73947 7.72117 9.4897L7.7467 9.44273C7.75096 9.43489 7.75522 9.42704 7.75949 9.4192L7.78502 9.37226C7.86987 9.21632 7.95127 9.06732 8.00067 8.97835H8.03829V8.92038C8.04978 8.89963 8.06162 8.87811 8.07234 8.85933ZM2.3107 9.33044C2.72456 9.78677 2.90017 10.1599 2.96214 10.5849C3.04505 11.2384 3.09654 11.8399 3.67546 12.3274C2.91038 11.9332 2.13509 11.9014 1.69067 11.56C0.719006 10.8232 0.646397 10.2946 0.54357 9.92192C0.884483 10.5335 1.62887 10.8232 1.99047 11.0209C2.29019 11.1968 2.71409 11.4669 3.00342 11.777C2.94377 11.6997 2.8835 11.6308 2.82493 11.5607L2.79802 11.5283C2.62403 11.3164 2.46844 11.0808 2.39344 10.5643C2.30066 9.83876 2.44553 9.73469 2.3107 9.33044ZM13.7862 9.33044C13.6618 9.73469 13.8069 9.83876 13.7033 10.5643C13.6283 11.0808 13.4727 11.3164 13.2986 11.5283L13.2717 11.5607C13.2582 11.5769 13.2446 11.593 13.2309 11.6092L13.2035 11.6416C13.1668 11.685 13.1298 11.7294 13.0931 11.777C13.3826 11.4669 13.8173 11.1968 14.1173 11.0209C14.4789 10.8232 15.2227 10.5335 15.5637 9.92192C15.4606 10.2946 15.3881 10.8232 14.4067 11.56C13.9613 11.9014 13.1867 11.9332 12.4214 12.3274C13.0107 11.8399 13.0624 11.2384 13.1453 10.5849C13.1962 10.1599 13.3729 9.78677 13.7862 9.33044ZM61.8811 2.86783H59.3785V12.0735H61.4815C64.2977 12.0735 66.6963 10.5216 66.6963 7.47035C66.6963 5.90149 65.8794 2.86783 61.8811 2.86783ZM6.25712 1.2345C6.22954 1.28923 6.20307 1.34489 6.17753 1.40116C5.3876 1.68153 4.6936 2.12557 4.10771 2.70305L4.81907 3.41645L4.94684 3.29633L5.11257 3.15102L5.28852 3.00605L5.47417 2.87124L5.66041 2.75718L5.77388 2.69101C5.7669 2.7244 5.75984 2.75744 5.75362 2.7892L5.70195 2.81925L5.51554 2.93314L5.32955 3.06803L5.16415 3.20284L4.99885 3.34807L4.87082 3.46845L5.6845 4.28455L5.76358 4.19807L5.79431 4.17083C5.80146 4.19832 5.80436 4.22616 5.81278 4.2551L5.73822 4.33817L5.86394 4.46214C5.88139 4.5137 5.8991 4.5657 5.91867 4.62085L5.68629 4.38991L5.58772 4.48843L5.48464 4.61248L5.38138 4.73756L5.28852 4.87211L5.20535 5.00692L5.12244 5.15214L5.05069 5.2972L4.97799 5.44242L4.91611 5.59806L4.86418 5.75362L4.82316 5.90917L4.78153 6.07514L4.75097 6.24077L4.73003 6.40674L4.71956 6.58279L4.71292 6.69685H5.25013L5.28852 6.63478L5.43288 6.51005L5.58772 6.37549L5.68127 6.29251L5.7429 6.18895L5.87143 6.12927L5.88752 6.07514L5.92914 5.96091L5.97068 5.85709L6.01205 5.76386L6.0633 5.66021L6.11531 5.56673L6.17727 5.4735L6.23362 5.39307C6.24486 5.41852 6.25618 5.43559 6.26793 5.46172L6.23362 5.51166L6.17727 5.59806L6.12552 5.69112L6.07377 5.79502L6.03265 5.88842L5.99111 5.99181L5.96966 6.06336L6.2389 5.87784L6.40506 5.77086C6.49435 5.96065 6.58986 6.14344 6.7012 6.36183C6.53513 6.65262 6.34982 6.99088 6.1371 7.36218L5.98115 7.33973H5.93842L5.95996 7.4123L5.99111 7.51577L6.02465 7.58698C6.01018 7.61284 5.99596 7.63385 5.98115 7.65929L5.92914 7.54711L5.88752 7.44354L5.85968 7.33973H5.77388L5.78461 7.17401L5.7429 7.01846L5.79584 6.99165L5.79508 6.98738L5.78461 6.87332V6.78043L5.77669 6.76993H5.57802L5.49485 6.92497H5.38138L5.39194 7.01846L5.28852 7.11169L5.26758 7.28799L5.15334 7.33973L5.12244 7.49528L5.28852 7.64034L5.26758 7.87896L5.36044 7.92054L5.38138 8.13833L5.28852 8.23156L5.47417 8.40795L5.49375 8.51125C5.22714 8.97596 4.97527 9.41453 4.78042 9.75364L4.71956 9.72479L4.60993 9.77029L4.67828 9.84858L4.70773 9.88043C4.69471 9.90314 4.68211 9.92525 4.66934 9.94676L4.62661 9.90117L4.48199 9.73469L4.4213 9.65691L4.12005 9.63122L4.06855 9.2682L3.9132 9.15465L3.77854 9.17488L3.51007 8.99858L3.55161 8.83321L3.31369 8.59407L3.1174 8.54267L3.01398 8.40795L2.93132 8.48009L3.00351 8.68773L2.82764 8.61541L2.84816 8.45986L2.83811 8.28373L2.98291 8.11759L3.19988 8.15874L3.4172 8.02393L3.59783 8.05287L3.56182 7.92054L3.51007 7.69216L3.46836 7.46429L3.43763 7.236L3.4172 6.99771V6.76993H2.40782C2.41072 8.31463 3.03338 9.71616 4.0391 10.7392L4.45279 10.3243C4.41781 10.3848 4.39797 10.4195 4.39797 10.4195L4.41491 10.4658L4.0906 10.791C4.29131 10.9901 4.50735 11.1739 4.73591 11.3415L4.81601 11.56C3.28449 10.5127 2.27682 8.75159 2.27682 6.75909C2.27682 4.1821 3.93959 1.9981 6.25712 1.2345ZM9.95175 1.24483C12.2112 2.00152 13.8827 4.18944 13.8827 6.75883C13.8827 8.74314 12.8834 10.4972 11.3629 11.5459L11.4415 11.3287C11.6636 11.1646 11.8735 10.9851 12.0691 10.7913L11.7519 10.4734L11.7624 10.4443C11.7624 10.4443 11.7595 10.4395 11.7541 10.4302L11.7463 10.4169C11.7448 10.4143 11.7432 10.4116 11.7415 10.4087L11.7236 10.378C11.7099 10.3545 11.6929 10.3252 11.6728 10.2907L12.1202 10.7395C13.1259 9.71642 13.7488 8.31489 13.7518 6.76993H12.7418V6.99771L12.7216 7.236L12.6898 7.46403L12.6487 7.69182L12.5972 7.92071L12.5347 8.14875L12.4622 8.36637L12.3801 8.57392L12.2868 8.78104L12.1841 8.98902L12.0698 9.17514L11.9465 9.37184L11.8219 9.54849L11.677 9.73469L11.5323 9.90092L11.4788 9.95812C11.4662 9.93626 11.4535 9.915 11.4402 9.89178L11.4807 9.84858L11.6255 9.68304L11.7594 9.50699L11.8838 9.33044L12.0079 9.14406L12.1221 8.94676L12.2142 8.74988L12.3077 8.54267L12.3901 8.33538L12.4622 8.12775L12.5245 7.89971L12.5767 7.68166L12.6176 7.45413L12.6487 7.22549L12.6691 6.98738V6.76993H11.5216L11.5119 6.93522L11.5014 7.11169L11.4807 7.27783L11.4496 7.45413L11.4082 7.6201L11.367 7.77514L11.3152 7.94129L11.2536 8.09684L11.1811 8.25231L11.1081 8.39736L11.0155 8.54267L10.9326 8.68773L10.8397 8.82254L10.8266 8.83782C10.8125 8.8134 10.798 8.7883 10.7836 8.76371L10.8707 8.64623L10.9533 8.50109L11.036 8.36637L11.1081 8.22123L11.1811 8.06576L11.2428 7.91012L11.2943 7.7544L11.3361 7.59859L11.3775 7.43287L11.4082 7.26699L11.429 7.10127L11.4394 6.92497L11.4491 6.76993H10.4984L10.5295 7.0182L10.6022 7.06021L10.5917 7.22549L10.6331 7.29858L10.6948 7.17376L10.8192 7.18443L10.8602 7.26699L11.0465 7.30848L11.0572 7.39181L10.7783 7.53703L10.6537 7.54685L10.6639 7.6201L10.5084 7.69182H10.3948L10.285 7.90475C9.97013 7.36073 9.67808 6.83977 9.44059 6.42441C9.62326 6.04108 9.80355 5.70828 9.93847 5.40929L9.98145 5.47324L9.99967 5.50056L10.0229 5.52524L10.2919 5.51533L10.4053 5.61847L10.3948 5.78435L10.5084 5.81526V5.91916L10.4361 6.02315L10.5397 6.04389L10.6226 5.91916L10.8087 5.85709L10.8602 6.05388L10.788 6.15744L10.8602 6.20995L11.067 6.10596L11.1706 5.88842L11.2943 5.90917L11.1189 6.23018L10.9847 6.407L10.8289 6.38574L10.757 6.53105L10.798 6.58253L10.726 6.66611L10.6226 6.65595L10.5781 6.69659H11.4461L11.4394 6.58253L11.429 6.407L11.4236 6.36422L11.4082 6.45882L11.2633 6.43748C11.2633 6.43748 11.3152 6.19919 11.3257 6.11621C11.3361 6.04389 11.3466 5.9814 11.3466 5.9814L11.2487 5.61599L11.2428 5.59806L11.2242 5.55153L11.036 5.44276L10.9231 5.23487L10.9838 5.06096L10.9831 5.05908L10.8506 5.09016L10.7467 4.88261V4.69965L10.7427 4.69496L10.5917 4.66448L10.4777 4.46768L10.4402 4.42244L10.254 4.60821C10.2712 4.55673 10.2886 4.50448 10.3034 4.45556L10.3935 4.36626L10.3743 4.34346L10.3411 4.30504C10.3708 4.19288 10.3944 4.07431 10.4125 3.96464L10.4165 3.93938L10.416 3.9387C10.416 3.9387 10.4164 3.93726 10.4173 3.93476L10.4173 3.93443L10.4191 3.92396C10.4274 3.87035 10.4344 3.81945 10.4401 3.77316L10.4442 3.73934L10.5064 3.63297L10.5125 3.36412L10.4627 3.27345C10.4598 3.16733 10.4532 3.02654 10.4471 2.94851C10.4417 2.87935 10.4192 2.72798 10.4128 2.69545L10.4857 2.74958L10.6022 2.67411L10.8707 2.84998L10.7675 2.71509L10.6331 2.58062L10.8707 2.60137L11.1081 2.79842L11.0056 2.84998L11.2226 3.20284L11.1679 3.25774L11.2119 3.29607L11.227 3.31033L11.357 3.3689L11.3654 3.39144L12.0517 2.7028C11.4697 2.12975 10.8149 1.6794 10.0388 1.41345C10.0144 1.35753 9.97907 1.28837 9.95175 1.24483ZM1.82508 7.83747C2.08334 8.40795 2.16599 8.71897 2.12471 9.14406C2.05235 9.77627 1.91795 10.2117 2.26967 10.8856C1.88705 10.471 1.1842 10.1806 0.80166 9.65196C0.202487 8.82253 0.0677392 8.18982 0.0677392 7.85847C0.202487 8.23156 0.863713 8.79146 1.13219 9.10248C1.31835 9.32011 1.58759 9.78677 1.79393 10.1912C1.64905 9.80752 1.56648 9.37184 1.61823 8.9786C1.65952 8.59441 1.83529 8.16958 1.82508 7.83747ZM14.2721 7.83747C14.2721 8.16958 14.448 8.59441 14.4888 8.9786C14.5304 9.37184 14.4582 9.80752 14.3136 10.1912C14.5097 9.78677 14.8298 9.28971 15.027 9.07132C15.285 8.76021 15.9151 8.21082 16.0398 7.85847C16.0398 8.18982 15.8947 8.82253 15.3059 9.65196C14.9128 10.1806 14.2197 10.471 13.8376 10.8856C14.1886 10.2117 14.0442 9.77627 13.9829 9.14406C13.9416 8.71897 14.0238 8.40795 14.2721 7.83747ZM8.28608 9.83876L8.11073 9.90365V10.1292H8.2551L8.42066 10.1181L8.54349 10.1028L8.49293 10.0353L8.28608 9.83876ZM15.8843 5.55682C15.9981 5.79502 16.3598 6.52046 15.7706 7.69182C15.5228 8.17991 14.8919 8.63565 14.6544 9.22688C14.7866 8.62186 14.633 8.20128 14.4681 7.76912L14.4413 7.6989C14.2669 7.24146 14.0965 6.75939 14.2512 6.02315C14.3234 6.28192 14.5407 6.43748 14.7993 7.06021C15.0471 7.67167 14.9231 8.10726 14.8824 8.51125C14.9441 8.33538 15.1403 7.67167 15.3255 7.36073C15.595 6.89407 15.9152 6.30267 15.8843 5.55682ZM0.212702 5.55682C0.191677 6.30267 0.512416 6.89407 0.78089 7.36073C0.956752 7.67167 1.16334 8.33538 1.22557 8.51125C1.18411 8.10726 1.04962 7.67167 1.30822 7.06021C1.55635 6.43748 1.7838 6.28192 1.84551 6.02315C2.01192 6.78734 1.82462 7.27771 1.64353 7.75092L1.61711 7.82008C1.4594 8.23466 1.32001 8.64567 1.44263 9.22688C1.2048 8.63565 0.584769 8.17991 0.336384 7.69182C-0.263214 6.52046 0.0984682 5.79502 0.212702 5.55682ZM47.2392 3.46051H47.2047L44.875 9.12707H49.5338L47.2392 3.46051ZM4.6375 6.76993H3.48938V6.98738L3.51007 7.22549L3.54088 7.45413L3.5825 7.68191L3.63392 7.89945L3.67469 8.04894L3.81029 8.03426L4.02693 8.09684L3.98564 7.96203L4.04761 7.81672L4.06855 7.62992L4.33702 7.39181L4.38886 7.29858L4.53366 7.22549L4.64738 7.33973L4.68705 7.32795L4.67828 7.27783L4.65734 7.11169L4.64738 6.93522L4.6375 6.76993ZM5.42267 7.53737L5.49485 7.60994L5.50558 7.76464L5.38138 7.72366L5.42267 7.53737ZM5.42267 7.15327L5.54686 7.236V7.36073L5.47417 7.48504L5.36044 7.47488V7.37106L5.42267 7.28773V7.15327ZM5.20535 6.76993H4.71003L4.71956 6.92497L4.73003 7.10127L4.75097 7.26724L4.75991 7.31531L4.87465 7.40205L4.99885 7.30882L5.09163 7.12202L5.11257 6.88365L5.20535 6.76993ZM15.1607 3.90779C15.3163 4.14616 15.709 4.48843 15.5636 5.70154C15.4918 6.41707 15.0884 6.87332 15.0577 7.3708C14.9233 5.76386 13.7861 5.78435 13.8071 4.43644C13.8789 4.64424 14.0445 4.90336 14.5304 5.32819C14.8846 5.63754 14.9578 5.94068 15.0063 6.23818L15.0138 6.28511L15.0285 6.37868C15.0371 6.43316 15.0463 6.48745 15.0577 6.54155C15.0373 6.18895 15.0577 5.70154 15.0677 5.48374C15.1192 4.84103 15.3257 4.54051 15.1607 3.90779ZM0.936152 3.90779C0.770675 4.54051 0.987481 4.84103 1.02893 5.48374C1.04962 5.70154 1.06017 6.18895 1.03975 6.54155C1.0527 6.47972 1.06284 6.41764 1.07262 6.35532L1.0836 6.28511C1.13284 5.97257 1.19574 5.65382 1.57695 5.32819C2.05235 4.90336 2.21792 4.64424 2.30074 4.43644C2.3054 5.05179 2.07309 5.38195 1.8064 5.71196L1.76809 5.75913C1.46009 6.137 1.11979 6.5324 1.04962 7.3708C1.00825 6.87332 0.615328 6.41707 0.53259 5.70154C0.398267 4.48843 0.78089 4.14616 0.936152 3.90779ZM5.85705 6.85949V6.87332L5.86428 6.95716L5.92914 6.92497L5.85705 6.85949ZM4.81805 3.51916L4.67828 3.65918L4.53366 3.82498L4.39933 4.00128L4.27514 4.18791L4.15129 4.37463L4.0374 4.56126L3.9441 4.75822L3.85123 4.9656L3.76858 5.17289L3.69614 5.39068L3.63392 5.60831L3.5825 5.82584L3.54088 6.05414L3.51007 6.28218L3.48938 6.52046V6.69685H4.64048L4.64738 6.58279L4.65734 6.40674L4.67828 6.23018L4.70935 6.06472L4.75097 5.89858L4.792 5.73261L4.84316 5.56673L4.90555 5.41117L4.97799 5.26612L5.05069 5.11082L5.14372 4.9656L5.22604 4.83079L5.31925 4.69606L5.42267 4.56126L5.53639 4.43618L5.63454 4.33817L4.81805 3.51916ZM5.58772 6.64502L5.54686 6.6866L5.55069 6.69685H5.72238L5.58772 6.64502ZM4.05536 2.75402C3.05109 3.76957 2.42578 5.16102 2.4091 6.69685H3.4172V6.52046L3.43763 6.28218L3.51007 5.815L3.56182 5.58747L3.62379 5.36994L3.69614 5.15214L3.77854 4.93426L3.87192 4.72646L3.97492 4.53018L4.08864 4.33288L4.21317 4.14616L4.33702 3.95978L4.48199 3.78297L4.62661 3.60718L4.76638 3.46717L4.05536 2.75402ZM12.1036 2.75402L11.3939 3.4658L11.3952 3.46947L11.5323 3.60718L11.5413 3.61845L11.6043 3.63817L11.6902 3.79928L11.8219 3.95953L11.8297 3.97105L11.9665 4.02185L12.1423 4.34346L12.3496 4.50943L12.4834 4.67557L12.3166 4.79271L12.3801 4.93401L12.4622 5.1524L12.5347 5.36968L12.5972 5.58747L12.6487 5.81526L12.6898 6.04389L12.7216 6.28192L12.7418 6.52046V6.69659H13.7504C13.7337 5.16051 13.1083 3.76905 12.1036 2.75402ZM10.7545 4.10689L10.6263 4.23597L10.6537 4.28088L10.575 4.38888L10.6226 4.43644L10.7362 4.56091L10.8397 4.69581L10.9326 4.83062L10.9881 4.92095L11.0979 4.86178L11.3466 4.98609L11.2846 5.18296L11.4496 5.46265L11.367 5.59806L11.3755 5.76625L11.3928 5.83626L11.4807 6.0123L11.4616 6.12901L11.4807 6.23018L11.5014 6.407L11.5119 6.58253L11.5185 6.69659H12.6691V6.52046L12.6487 6.28192L12.6176 6.05388L12.5767 5.82584L12.5245 5.60805L12.4622 5.39043L12.3901 5.17289L12.3077 4.96534L12.2769 4.89704V5.03782L12.1841 5.02766L12.0698 5.09016L11.9562 4.95475L11.915 4.79971L11.6875 4.53018L11.6357 4.62298L11.4807 4.59225L11.4601 4.53018L11.3152 4.50943L11.1189 4.44694L11.036 4.2919L10.788 4.18791L10.7545 4.10689ZM7.32131 2.07955C7.26734 2.48782 7.47819 3.23119 7.9164 4.1582C7.70376 4.60821 7.0605 5.73867 6.8797 6.0935C6.15838 4.7478 5.91374 3.97737 5.99979 3.4109C6.10466 3.11499 6.7321 2.32313 7.32131 2.07955ZM11.5323 5.35944L11.6357 5.52524L11.5531 5.64954L11.6255 5.79477L11.4397 5.77428L11.4084 5.62905L11.5014 5.54598L11.5323 5.35944ZM10.4052 5.42167L10.5088 5.56647L10.3432 5.49459L10.4052 5.42167ZM14.0756 2.54912C14.2197 2.64286 14.613 3.02654 14.8721 3.83496C15.0471 4.39494 14.8192 4.95475 14.8506 5.40076C14.2197 4.13583 13.3002 4.28088 12.897 2.98522C13.0933 3.15076 13.3522 3.32706 13.8068 3.63817C14.2614 3.95978 14.4372 4.22932 14.613 4.63374C14.5826 4.49953 14.4372 4.19807 14.3957 3.90779C14.3235 3.33756 14.2721 2.87099 14.0756 2.54912ZM2.03167 2.54912C1.83529 2.87099 1.7838 3.33756 1.70089 3.90779C1.65952 4.19807 1.52562 4.49953 1.48366 4.63374C1.67024 4.22932 1.84551 3.95978 2.30066 3.63817C2.75538 3.32706 3.00351 3.15076 3.2101 2.98522C2.80747 4.28088 1.88705 4.13583 1.2563 5.40076C1.28754 4.95475 1.04953 4.39494 1.22557 3.83496C1.48366 3.02654 1.87658 2.64286 2.03167 2.54912ZM10.5605 5.04867L10.6949 5.22471L10.5293 5.25519L10.633 5.35944L10.4776 5.40076L10.3124 5.26612L10.4986 5.04867H10.5605ZM10.5917 4.81004L10.6846 4.91352L10.5504 4.96534L10.4878 4.90336L10.5917 4.81004ZM10.4984 3.85571C10.4561 3.83863 10.4276 3.90596 10.4188 3.93026L10.4173 3.93443L10.4165 3.93938L10.5397 4.09399L10.5871 4.17177L10.7833 3.97524L10.7052 3.88704L10.5917 3.9387C10.5917 3.9387 10.5504 3.87671 10.4984 3.85571ZM8.07226 1.90436C8.08596 1.90436 8.09856 1.9053 8.11192 1.9059L8.11065 2.074L8.31707 2.08245L8.55515 2.10371L8.58188 2.10585C8.58256 2.12873 8.58188 2.15391 8.58001 2.18123L8.54443 2.17679L8.31707 2.15528L8.11065 2.14657V3.30632H8.25493L8.30268 3.31212C8.29485 3.33517 8.2871 3.3584 8.27876 3.38205L8.25493 3.37914H8.11065V3.81371C8.09907 3.84282 8.08809 3.87176 8.07592 3.90198C8.06221 3.86698 8.05123 3.83633 8.03812 3.80244V3.37914H7.9038L7.87767 3.3823C7.86975 3.35882 7.86132 3.335 7.85358 3.31212L7.9038 3.30632H8.03812V2.14683L7.84183 2.15528L7.61379 2.17679L7.59098 2.1797C7.58996 2.15391 7.58859 2.12762 7.58885 2.10499L7.63286 2.09816L7.84183 2.08245L8.03812 2.07426L8.03948 1.9053C8.05046 1.90513 8.06094 1.90436 8.07226 1.90436ZM3.95474 1.67863C3.57229 2.15528 3.43788 2.39408 3.07594 2.75684C2.76585 3.06803 2.14531 3.37914 1.92825 3.74165C2.11449 2.94347 2.45575 2.54912 2.83794 2.25927C3.25164 1.94816 3.71674 1.80319 3.95474 1.67863ZM12.1423 1.67863C12.3902 1.80319 12.8456 1.94816 13.2582 2.25927C13.652 2.54912 13.9829 2.94347 14.179 3.74165C13.9613 3.37914 13.3309 3.06803 13.0312 2.75684C12.6595 2.39408 12.5246 2.15528 12.1423 1.67863ZM8.07081 0.259766C8.52842 0.259766 8.88228 0.403965 9.14105 0.603916C9.66208 1.00569 10.0837 2.12053 10.1658 2.82864C9.62956 2.09637 8.86508 1.58745 8.07081 1.58745C7.31561 1.58745 6.54219 2.09296 6.0221 2.83419C6.14765 2.15366 6.49452 1.01961 7.00576 0.603916C7.24862 0.406868 7.61311 0.259766 8.07081 0.259766Z" fill="white"/>
<line opacity="0.4" x1="95.5" y1="2.18556e-08" x2="95.5" y2="14" stroke="white"/>
</svg>
