<svg width="22" height="22" viewBox="0 0 22 22" fill="none" xmlns="http://www.w3.org/2000/svg">
    <path d="M13.0187 15.3083C14.8353 15.3083 16.543 14.6223 17.8274 13.3764C19.1119 12.1308 19.8194 10.4743 19.8194 8.712C19.8194 6.94972 19.1119 5.29321 17.8271 4.04732C16.5428 2.80151 14.8352 2.11541 13.0187 2.11541C11.2021 2.11541 9.49404 2.80158 8.20938 4.04743C6.96707 5.2524 6.26052 6.85423 6.21988 8.55786C6.17937 10.2562 6.80229 11.8822 7.97391 13.1362L8.45429 13.6504L9.02587 14.0536C10.1894 14.8744 11.5701 15.3083 13.0187 15.3083ZM1.31616 22L0 20.7246L6.35813 14.5568C3.16395 11.1379 3.26702 5.8498 6.66756 2.5515C10.1755 -0.850502 15.8621 -0.8505 19.369 2.5515C22.877 5.95309 22.877 11.4709 19.369 14.8725C16.2017 17.9448 11.2558 18.2423 7.74339 15.7645L1.31616 22Z" fill="#282828"/>
</svg>