<svg width="230" height="22" viewBox="0 0 230 22" fill="none" xmlns="http://www.w3.org/2000/svg">
<path d="M11.8366 20.8542C7.33159 20.2328 5.33193 19.5866 1.74955 17.5931C-0.401635 16.3964 0.244823 14.6346 3.03039 14.1031C4.27399 13.8657 7.69271 13.1584 10.6282 12.5311C19.6352 10.6065 25.8881 9.50658 29.9994 9.12447C32.162 8.92329 34.1762 8.59359 34.4758 8.3923C34.775 8.19094 35.5156 8.09796 36.1215 8.18564C36.7274 8.27331 38.2686 8.13793 39.546 7.8852C42.3393 7.33204 49.6145 6.44206 58.1796 5.60534C61.6421 5.26745 65.3098 4.85219 66.3298 4.68326C67.3499 4.51433 69.0069 4.32226 70.0121 4.25617C71.0173 4.19059 73.2574 3.98976 74.9902 3.81018C78.6627 3.42923 86.2012 2.87478 90.6736 2.65664C92.3924 2.57331 94.5107 2.41074 95.3806 2.29663C96.2506 2.18201 98.5988 2.03869 100.599 1.97795C102.599 1.91721 105.879 1.76756 107.888 1.64552C115.753 1.16834 120.355 1.10653 128.876 1.36306C131.567 1.44415 134.169 1.52172 134.659 1.53578C135.149 1.54926 135.729 1.42684 135.948 1.26305C136.168 1.09926 136.968 1.05532 137.728 1.16528C138.488 1.27516 139.274 1.07083 139.476 0.710537C139.942 -0.123942 142.623 -0.264571 143.324 0.509254C143.677 0.898486 145.827 1.1745 149.671 1.32478C152.869 1.44971 155.827 1.60206 156.245 1.66304C156.663 1.72402 158.229 1.61651 159.726 1.42398C161.222 1.23195 163.32 1.20971 164.388 1.37553C165.455 1.54085 169.683 1.81548 173.783 1.98569C180.523 2.26477 185.382 2.53032 206.112 3.75181C209.638 3.95943 215.27 4.44894 218.627 4.83955C221.984 5.23067 225.587 5.51886 226.635 5.48058C228.303 5.41895 228.622 5.5881 229.209 6.84769C229.938 8.41121 229.505 9.7906 228.339 9.62177C227.935 9.56334 227.499 9.71535 227.368 9.95922C226.856 10.9205 216.194 9.64162 215.254 8.50627C214.341 7.40398 205.449 6.39609 187.773 5.39143C184.246 5.19091 180.21 4.93328 178.804 4.81882C171.692 4.23915 169.332 4.12783 168.823 4.34901C168.516 4.48252 166.212 4.29748 163.702 3.93844C161.193 3.57948 158.988 3.46627 158.803 3.68724C158.618 3.90828 157.009 3.86932 155.226 3.60057C153.444 3.33232 151.664 3.25217 151.271 3.42339C150.878 3.5941 149.057 3.57521 147.224 3.38086C145.392 3.18708 142.604 3.08833 141.029 3.16193C139.454 3.23502 135.718 3.31361 132.728 3.33557C129.738 3.35804 126.237 3.42504 124.949 3.48424C122.393 3.60225 121.401 3.62572 114.05 3.74173C111.341 3.78476 108.765 3.89304 108.326 3.98302C107.886 4.0725 106.718 4.10211 105.73 4.04864C101.82 3.83605 96.5301 4.03531 93.2566 4.51847C91.3629 4.79839 88.7651 5.03275 87.484 5.04028C86.2028 5.0473 84.8814 5.21506 84.5472 5.41186C84.2135 5.60925 83.162 5.63814 82.2104 5.47666C81.2593 5.31524 79.417 5.29742 78.1167 5.43717C73.0392 5.9836 68.8621 6.33137 67.2489 6.34207C66.3206 6.34842 65.4067 6.53785 65.2178 6.76345C65.0284 6.98947 64.3096 7.09235 63.6196 6.99251C62.9296 6.89266 61.7519 7.0967 61.0025 7.44651C60.2527 7.79575 59.2876 7.88524 58.8574 7.64456C58.4273 7.40387 57.79 7.37163 57.4413 7.57304C56.9328 7.86669 51.3295 8.3122 49.0052 8.24328C48.722 8.23488 47.5509 8.49993 46.4028 8.83187C45.2551 9.16388 44.0177 9.26926 43.6536 9.06555C43.2895 8.86183 42.9623 8.89981 42.9261 9.14957C42.8899 9.39983 41.4968 9.78066 39.8297 9.99562C38.1627 10.2106 35.7229 10.5863 34.4075 10.8304C33.0921 11.0745 31.2074 11.2709 30.2195 11.2671C29.2317 11.2628 28.0324 11.5092 27.5542 11.815C27.0761 12.1202 25.5388 12.3535 24.138 12.3333C22.7372 12.3127 21.0218 12.5615 20.3264 12.8855C19.6308 13.21 18.5962 13.4079 18.0273 13.3256C17.4579 13.2432 15.8322 13.565 14.4145 14.0405C12.9963 14.5159 10.7994 15.1683 9.53216 15.4908C5.12035 16.613 6.90081 18.2987 13.618 19.3596C17.2855 19.9389 18.7158 20.6703 17.3453 21.266C17.0109 21.411 14.5318 21.226 11.8366 20.8542Z" fill="#63AB77"/>
<path d="M61.9889 16.325C57.5569 17.8006 56.5218 17.7626 55.9983 16.1047C55.2481 13.7261 56.0208 13.1184 60.3511 12.6811C62.3204 12.4825 67.6122 11.8165 72.1105 11.2013C79.1226 10.2418 94.2923 8.70204 97.5693 8.61711C98.1403 8.6025 98.9679 8.51282 99.4083 8.41828C100.427 8.19904 105.974 7.94075 108.004 8.01739C108.856 8.04955 111.312 7.96077 113.464 7.82053C122.377 7.23904 147.15 6.91308 153.361 7.2956C154.348 7.35667 155.745 7.35097 156.466 7.28307C157.187 7.21517 159.506 7.27247 161.62 7.41021C163.733 7.54846 166.424 7.45413 167.598 7.201C171.314 6.39961 173.016 7.28884 172.647 9.83858C172.311 12.1583 168.35 12.7772 164.81 11.063C164.229 10.7819 161.152 10.4303 157.973 10.2817C154.794 10.133 150.986 9.9212 149.511 9.81023C148.037 9.69935 145.368 9.64932 143.579 9.69879C133.979 9.96464 123.353 9.94672 121.38 9.66119C120.146 9.48261 118.841 9.55704 118.48 9.82699C118.119 10.0969 116.682 10.126 115.288 9.89218C113.894 9.65838 112.583 9.67087 112.374 9.91944C112.166 10.1686 111.195 10.2563 110.218 10.1149C109.242 9.97356 107.965 10.0308 107.381 10.2422C106.047 10.7258 97.2059 11.3353 95.3746 11.0703C94.6228 10.9615 93.0713 11.114 91.927 11.4088C90.7826 11.704 88.6805 11.9626 87.2551 11.9834C84.0674 12.0305 80.2189 12.4268 79.097 12.8241C78.6353 12.987 77.2175 13.1346 75.9463 13.1518C72.3208 13.2008 69.5487 13.6459 67.9423 14.4354C67.1293 14.8355 66.3099 15.14 66.1215 15.1127C65.9325 15.0854 64.0733 15.631 61.9889 16.325Z" fill="#63AB77"/>
</svg>
