<svg width="46" height="57" viewBox="0 0 46 57" fill="none" xmlns="http://www.w3.org/2000/svg">
<path d="M19.3942 26.2468L19.3943 26.2467C19.6133 25.8372 20.3392 24.5091 21.2747 22.7974C22.0109 21.4502 22.8771 19.8655 23.7283 18.3038C24.6937 16.5324 25.6392 14.7921 26.3517 13.4664C26.7078 12.8037 27.0065 12.2432 27.2205 11.8337C27.3274 11.6293 27.4143 11.4603 27.4771 11.3343C27.5083 11.2715 27.535 11.2167 27.5555 11.1721C27.5706 11.1394 27.598 11.0799 27.6141 11.0246C27.6741 10.82 27.7992 10.4685 27.9145 10.1553C27.9251 10.1265 27.9356 10.0981 27.9459 10.0704C28.001 10.0955 28.0604 10.1234 28.1233 10.1542C28.5084 10.343 29.0209 10.6379 29.5314 11.0614C30.5473 11.9043 31.5432 13.2422 31.5432 15.288C31.5432 19.4478 29.6688 22.8698 27.6447 26.5651C27.5685 26.7041 27.4921 26.8436 27.4156 26.9835C26.3741 28.888 22.3392 35.7064 18.5564 42.0625C16.6668 45.2374 14.8426 48.2928 13.4908 50.5544C12.8149 51.6852 12.2571 52.6176 11.8683 53.2672L11.4182 54.0191L11.4052 54.0407H1.42323L1.67934 53.6482C2.16402 52.9054 2.85728 51.8424 3.69164 50.5624C5.36036 48.0023 7.59355 44.5734 9.85131 41.0986C12.109 37.624 14.3916 34.103 16.159 31.3586C17.9161 28.6302 19.1853 26.6372 19.3942 26.2468Z" fill="#F40000" stroke="#F40000"/>
<path d="M30.772 54.5407L29.9076 55.0436L30.1969 55.5407H30.772H41.4999H43.2865L42.3524 54.0179L41.4999 54.5407C42.3524 54.0179 42.3523 54.0178 42.3522 54.0176L42.3516 54.0166L42.3493 54.0129L42.3403 53.9982L42.3047 53.9401L42.1656 53.7133L41.6369 52.851C41.1809 52.1074 40.5288 51.0434 39.7437 49.762C38.1735 47.1993 36.0718 43.767 33.9456 40.2889C29.6765 33.3053 25.3524 26.2077 24.9779 25.5068C24.7571 25.0937 24.0296 23.7611 23.0944 22.0481C22.356 20.6956 21.4881 19.1059 20.638 17.5445C19.6728 15.7715 18.729 14.0325 18.0187 12.7093C17.6633 12.0473 17.3679 11.4922 17.1579 11.09C17.0526 10.8883 16.971 10.7293 16.9147 10.6162C16.8889 10.5643 16.8706 10.5265 16.8587 10.501C16.7225 10.0537 16.418 9.25052 16.3455 9.0601L15.9571 8.04029L14.975 8.51606C12.1442 9.88741 10.9875 11.8914 10.6357 12.6479L10.6301 12.66L10.6254 12.6708L10.6252 12.6712L10.6241 12.6737L10.6211 12.6806L10.6162 12.6917L10.6162 12.6917L10.6122 12.701L10.5312 12.8935L10.5307 12.8933C10.206 13.6929 10.006 14.6035 10.006 15.6266C10.006 18.6588 10.5041 20.7296 11.3004 22.5525C11.6924 23.4496 12.1496 24.2706 12.6273 25.0892C12.7606 25.3177 12.8947 25.5447 13.0297 25.7733C13.3854 26.3753 13.7478 26.9887 14.1208 27.6715C14.4396 28.2555 15.0178 29.2788 15.7662 30.5908L15.7662 30.5909C17.0147 32.7791 18.7484 35.7888 20.5738 38.9481L20.5738 38.9481L20.626 39.0385L20.6785 39.1293L20.6813 39.134L20.6872 39.1443L20.6908 39.1508L20.6945 39.1572C21.3106 40.2228 21.9362 41.3044 22.5565 42.3757L22.5565 42.3757L22.6362 42.5133C22.7414 42.695 22.8465 42.8765 22.9509 43.0569L22.9512 43.0574C24.7643 46.1881 26.5034 49.1847 27.7892 51.3984C28.4321 52.5053 28.9617 53.4166 29.3305 54.0511L29.7574 54.7853L29.8693 54.9777L29.898 55.0269L29.9052 55.0394L29.907 55.0425L29.9075 55.0433L29.9076 55.0435L30.772 54.5407ZM16.8458 10.4721C16.8459 10.4722 16.847 10.4748 16.8489 10.4793C16.8466 10.4742 16.8457 10.4719 16.8458 10.4721Z" fill="#F40000" stroke="#272727" stroke-width="2"/>
<mask id="path-3-outside-1_376:4880" maskUnits="userSpaceOnUse" x="7" y="0.398438" width="29" height="15" fill="black">
<rect fill="white" x="7" y="0.398438" width="29" height="15"/>
<path fill-rule="evenodd" clip-rule="evenodd" d="M9 13.4991L12.7372 8.2437C12.7372 8.2437 15.5485 2.39844 21.1712 2.39844C26.706 2.39844 29.6051 8.2437 29.6051 8.2437L34 13.4991C34 13.4991 30.9791 9.49176 21.5 9.49176C12.0212 9.49176 9 13.4991 9 13.4991Z"/>
</mask>
<path fill-rule="evenodd" clip-rule="evenodd" d="M9 13.4991L12.7372 8.2437C12.7372 8.2437 15.5485 2.39844 21.1712 2.39844C26.706 2.39844 29.6051 8.2437 29.6051 8.2437L34 13.4991C34 13.4991 30.9791 9.49176 21.5 9.49176C12.0212 9.49176 9 13.4991 9 13.4991Z" fill="#F40000"/>
<path d="M9 13.4991L7.37009 12.3401L10.597 14.7031L9 13.4991ZM12.7372 8.2437L14.3671 9.40274L14.4658 9.26399L14.5396 9.11056L12.7372 8.2437ZM29.6051 8.2437L27.8134 9.13237L27.9188 9.3448L28.0709 9.52671L29.6051 8.2437ZM34 13.4991L32.4658 14.7822L35.597 12.2952L34 13.4991ZM10.6299 14.6582L14.3671 9.40274L11.1073 7.08465L7.37009 12.3401L10.6299 14.6582ZM12.7372 8.2437C14.5396 9.11056 14.5392 9.11123 14.5389 9.11187C14.5388 9.11206 14.5385 9.11268 14.5384 9.11305C14.538 9.1138 14.5377 9.11446 14.5374 9.11503C14.5369 9.11618 14.5365 9.11698 14.5362 9.11745C14.5358 9.11839 14.536 9.11799 14.5368 9.1163C14.5385 9.11291 14.5428 9.10435 14.5496 9.09097C14.5634 9.06418 14.5874 9.01826 14.6217 8.95592C14.6903 8.83098 14.7992 8.64185 14.9479 8.41001C15.2476 7.94269 15.6961 7.32196 16.2871 6.70757C17.4841 5.46314 19.1064 4.39844 21.1712 4.39844V0.398438C17.6133 0.398438 15.0186 2.25637 13.4043 3.93457C12.5896 4.78149 11.9839 5.62207 11.5808 6.25074C11.378 6.5669 11.2233 6.83443 11.1163 7.02915C11.0627 7.12664 11.0208 7.2063 10.9907 7.26514C10.9756 7.29457 10.9634 7.31883 10.9541 7.33756C10.9494 7.34693 10.9455 7.35491 10.9423 7.36147C10.9407 7.36475 10.9393 7.36768 10.938 7.37024C10.9374 7.37152 10.9368 7.37271 10.9363 7.37381C10.936 7.37436 10.9357 7.37512 10.9355 7.37539C10.9352 7.37612 10.9348 7.37683 12.7372 8.2437ZM21.1712 4.39844C23.1866 4.39844 24.8103 5.45732 26.0277 6.71316C26.6264 7.33077 27.0844 7.9548 27.3917 8.42482C27.5441 8.65803 27.6564 8.84844 27.7274 8.97454C27.7629 9.03746 27.7879 9.08394 27.8023 9.11126C27.8095 9.1249 27.814 9.13372 27.8159 9.13736C27.8168 9.13918 27.8171 9.13971 27.8167 9.13889C27.8165 9.13848 27.8161 9.13774 27.8155 9.13665C27.8153 9.13611 27.815 9.13548 27.8146 9.13477C27.8144 9.13441 27.8141 9.13381 27.814 9.13363C27.8137 9.13301 27.8134 9.13237 29.6051 8.2437C31.3969 7.35503 31.3965 7.35434 31.3962 7.35363C31.396 7.35336 31.3957 7.35263 31.3954 7.35209C31.3949 7.35102 31.3943 7.34986 31.3937 7.34861C31.3924 7.34611 31.391 7.34325 31.3894 7.34003C31.3861 7.3336 31.3821 7.32574 31.3774 7.3165C31.368 7.29802 31.3555 7.27402 31.3402 7.24485C31.3094 7.18654 31.2667 7.10744 31.2121 7.01053C31.103 6.81696 30.9454 6.55072 30.7396 6.23593C30.3304 5.60997 29.7176 4.77268 28.8997 3.92897C27.2838 2.26218 24.6905 0.398438 21.1712 0.398438V4.39844ZM28.0709 9.52671L32.4658 14.7822L35.5342 12.2161L31.1394 6.96069L28.0709 9.52671ZM34 13.4991C35.597 12.2952 35.5962 12.294 35.5952 12.2928C35.5949 12.2924 35.594 12.2912 35.5934 12.2903C35.5921 12.2886 35.5907 12.2869 35.5893 12.2851C35.5866 12.2814 35.5836 12.2776 35.5804 12.2735C35.5741 12.2652 35.5669 12.256 35.5589 12.2459C35.5429 12.2257 35.5235 12.2018 35.5007 12.1744C35.4551 12.1196 35.3956 12.051 35.3215 11.9706C35.1732 11.8099 34.9662 11.6024 34.6935 11.3649C34.1472 10.889 33.3413 10.2962 32.2223 9.7184C29.9747 8.5578 26.531 7.49176 21.5 7.49176V11.4918C25.9481 11.4918 28.7543 12.4294 30.387 13.2725C31.2081 13.6965 31.7499 14.1056 32.0663 14.3811C32.2249 14.5193 32.3279 14.6249 32.3819 14.6833C32.4089 14.7125 32.4236 14.73 32.4268 14.7339C32.4285 14.7359 32.4272 14.7344 32.4232 14.7294C32.4212 14.7268 32.4185 14.7234 32.4151 14.719C32.4134 14.7168 32.4116 14.7144 32.4095 14.7118C32.4085 14.7104 32.4075 14.709 32.4064 14.7076C32.4058 14.7069 32.405 14.7057 32.4047 14.7054C32.4038 14.7042 32.403 14.7031 34 13.4991ZM21.5 7.49176C16.4691 7.49176 13.0254 8.5578 10.7778 9.71839C9.65884 10.2962 8.85291 10.889 8.3066 11.3648C8.03388 11.6024 7.82688 11.8099 7.67857 11.9706C7.60443 12.0509 7.54499 12.1195 7.49937 12.1743C7.47655 12.2017 7.45719 12.2256 7.44117 12.2459C7.43316 12.256 7.42598 12.2652 7.41962 12.2734C7.41645 12.2775 7.41347 12.2814 7.4107 12.285C7.40932 12.2868 7.40799 12.2886 7.4067 12.2903C7.40606 12.2911 7.40514 12.2923 7.40482 12.2928C7.4039 12.294 7.403 12.2951 9 13.4991C10.597 14.7031 10.5961 14.7043 10.5953 14.7054C10.595 14.7058 10.5941 14.7069 10.5936 14.7077C10.5925 14.7091 10.5914 14.7105 10.5904 14.7118C10.5884 14.7145 10.5865 14.7169 10.5848 14.7191C10.5814 14.7235 10.5788 14.7269 10.5767 14.7294C10.5727 14.7345 10.5715 14.7359 10.5731 14.734C10.5764 14.7301 10.5911 14.7126 10.6181 14.6833C10.672 14.6249 10.7751 14.5193 10.9337 14.3811C11.2501 14.1056 11.7919 13.6965 12.6131 13.2725C14.2458 12.4294 17.0521 11.4918 21.5 11.4918V7.49176Z" fill="#272727" mask="url(#path-3-outside-1_376:4880)"/>
</svg>
