<?xml version="1.0" standalone="no"?>
<!DOCTYPE svg PUBLIC "-//W3C//DTD SVG 1.1//EN" "http://www.w3.org/Graphics/SVG/1.1/DTD/svg11.dtd" >
<svg xmlns="http://www.w3.org/2000/svg" xmlns:xlink="http://www.w3.org/1999/xlink" version="1.1">
<metadata>
Created by FontForge 20150318 at Sat Apr  4 12:21:32 2015
 By uniteet7
2006 Dziedzic Lukasz published by FSI Fonts und Software GmbH
</metadata>
<defs>
<font id="clanblack" horiz-adv-x="636" >
  <font-face 
    font-family="clanblack"
    font-weight="900"
    font-stretch="normal"
    units-per-em="1000"
    panose-1="2 0 10 3 0 0 0 0 0 0"
    ascent="800"
    descent="-200"
    x-height="612"
    cap-height="750"
    bbox="-131 -192 1080 927"
    underline-thickness="39"
    underline-position="-81"
    unicode-range="U+0020-FB02"
  />
<missing-glyph horiz-adv-x="634" 
 />
    <glyph glyph-name=".notdef" horiz-adv-x="634" 
 />
    <glyph glyph-name=".null" horiz-adv-x="0" 
 />
    <glyph glyph-name=".null" horiz-adv-x="0" 
 />
    <glyph glyph-name="nonmarkingreturn" horiz-adv-x="333" 
 />
    <glyph glyph-name="space" unicode=" " horiz-adv-x="245" 
 />
    <glyph glyph-name="exclam" unicode="!" horiz-adv-x="303" 
d="M228 227h-152l-29 523h209zM259 77q0 -89 -104 -89q-54 0 -78.5 21t-24.5 68q0 90 103 90q104 0 104 -90z" />
    <glyph glyph-name="quotedbl" unicode="&#x22;" horiz-adv-x="458" 
d="M257 765h182l-32 -291h-124zM40 765h182l-32 -291h-124z" />
    <glyph glyph-name="numbersign" unicode="#" horiz-adv-x="626" 
d="M27 308h88l21 126h-109v140h129l27 176h154l-27 -176h67l27 176h150l-27 -176h72v-140h-92l-21 -126h112l1 -143h-133l-25 -165h-150l25 165h-68l-26 -165h-153l25 165h-67v143zM290 434l-21 -126h68l21 126h-68z" />
    <glyph glyph-name="dollar" unicode="$" horiz-adv-x="586" 
d="M277 -79l-104 9l10 63q-94 12 -150 41q3 20 10.5 77.5t13.5 94.5q75 -38 153 -53l24 142q-43 16 -74.5 33t-63.5 44t-49 67.5t-17 91.5q0 225 282 231l11 64l114 -10l-11 -62q57 -8 93 -23l-10 -166q-48 13 -113 21l-23 -129q39 -14 68 -30.5t58 -42.5t44.5 -65.5
t15.5 -89.5q0 -122 -65.5 -181.5t-205.5 -61.5zM401 203q0 31 -64 56l-20 -114q84 6 84 58zM206 540q0 -28 60 -50l17 101q-77 -4 -77 -51z" />
    <glyph glyph-name="percent" unicode="%" horiz-adv-x="756" 
d="M348 583q0 -87 -42 -131.5t-123 -44.5q-162 0 -162 176q0 90 39 132t124 42q83 0 123.5 -41.5t40.5 -132.5zM221 583q0 35 -8.5 48t-28.5 13t-28 -13t-8 -48t8.5 -47.5t27.5 -12.5q20 0 28.5 12.5t8.5 47.5zM527 705l108 -85l-418 -586l-108 85zM735 164
q0 -86 -42 -130.5t-123 -44.5q-162 0 -162 175q0 91 39 134t124 43q82 0 123 -42.5t41 -134.5zM608 164q0 34 -8.5 46.5t-28.5 12.5t-28 -12.5t-8 -46.5q0 -35 8 -47t28 -12t28.5 12.5t8.5 46.5z" />
    <glyph glyph-name="ampersand" unicode="&#x26;" horiz-adv-x="735" 
d="M729 160l-69 -169q-78 31 -159 83q-110 -88 -245 -88q-121 0 -180 63t-59 154q0 120 127 212q-61 93 -61 157q0 85 55 137.5t179 52.5q100 0 165 -44.5t65 -117.5q0 -61 -44 -108t-125 -101q49 -49 104 -91q30 55 43 108h165q-11 -94 -73 -198q59 -32 112 -50zM287 158
q41 0 77 18q-63 53 -118 112q-29 -34 -29 -68q0 -62 70 -62zM263 572q0 -26 23 -66q66 42 67 77q0 19 -11.5 28.5t-28.5 9.5q-50 0 -50 -49z" />
    <glyph glyph-name="quotesingle" unicode="'" horiz-adv-x="240" 
d="M29 765h182l-32 -291h-124z" />
    <glyph glyph-name="parenleft" unicode="(" horiz-adv-x="373" 
d="M229 785l141 -12q-117 -184 -117 -450q0 -264 117 -450l-141 -12q-80 85 -121 205t-41 257q0 287 162 462z" />
    <glyph glyph-name="parenright" unicode=")" horiz-adv-x="373" 
d="M3 773l141 12q162 -174 162 -462q0 -137 -41 -257t-121 -205l-141 12q117 184 117 450t-117 450z" />
    <glyph glyph-name="asterisk" unicode="*" horiz-adv-x="388" 
d="M153 779h86l14 -98l94 22l30 -86l-91 -44l52 -86l-66 -51l-75 74l-77 -75l-70 48l52 90l-92 43l33 87l94 -22z" />
    <glyph glyph-name="plus" unicode="+" horiz-adv-x="605" 
d="M549 249h-163v-161h-169v161h-162v170h162v161h169v-161h163v-170z" />
    <glyph glyph-name="comma" unicode="," horiz-adv-x="274" 
d="M135 183q106 0 106 -108q0 -44 -32 -110t-71 -111l-68 16l25 120q-25 12 -43.5 36.5t-18.5 54.5q0 102 102 102z" />
    <glyph glyph-name="hyphen" unicode="-" horiz-adv-x="381" 
d="M41 409h299v-133h-299v133z" />
    <glyph glyph-name="period" unicode="." horiz-adv-x="280" 
d="M247 87q0 -99 -107 -99q-57 0 -82 23t-25 76q0 100 107 100t107 -100z" />
    <glyph glyph-name="slash" unicode="/" horiz-adv-x="474" 
d="M318 779h166l-340 -898h-161z" />
    <glyph glyph-name="zero" unicode="0" 
d="M603 371q0 -198 -69 -289.5t-218 -91.5t-216 91t-67 290q0 209 66.5 298t218.5 89q151 0 218 -89t67 -298zM403 373q0 91 -10 138.5t-26.5 61.5t-47.5 14q-33 0 -50 -14.5t-27 -62t-10 -137.5q0 -94 10 -141.5t27 -61t50 -13.5q31 0 47.5 14.5t26.5 62t10 139.5z" />
    <glyph glyph-name="one" unicode="1" 
d="M152 0v140h97v374l-123 -67l-20 161l228 142h123v-610h97v-140h-402z" />
    <glyph glyph-name="two" unicode="2" 
d="M583 533q0 -61 -35 -122.5t-85 -111.5t-137 -123v-3h253l-4 -173h-507v128q26 26 70 70.5t66 66.5t54.5 56.5t48.5 55.5t33 47t24 47.5t7 41.5q0 70 -93 70q-79 0 -172 -61l-48 160q110 77 260 77q130 0 197.5 -61.5t67.5 -164.5z" />
    <glyph glyph-name="three" unicode="3" 
d="M590 226q0 -112 -75 -174t-227 -62q-131 0 -228 56l37 153q94 -46 185 -46q109 0 109 79q0 40 -36.5 61t-138.5 21v140q100 0 134.5 18.5t34.5 57.5q0 60 -99 60q-102 0 -185 -61l-46 154q103 76 245 76q129 0 201.5 -57.5t72.5 -157.5q0 -105 -94 -155v-2
q110 -46 110 -161z" />
    <glyph glyph-name="four" unicode="4" 
d="M612 132h-62v-132h-188v132h-322l-17 123l284 495h243v-454h66zM368 296l7 183l5 81l-2 1l-38 -72l-106 -193h134z" />
    <glyph glyph-name="five" unicode="5" 
d="M590 260q0 -129 -70 -199.5t-218 -70.5q-138 0 -239 55l36 154q96 -45 183 -45q61 0 84 21.5t23 67.5q0 41 -26 59t-81 18q-69 0 -137 -20l-70 75l31 375h440l7 -173h-285l-8 -104q39 6 84 6q118 0 182 -56t64 -163z" />
    <glyph glyph-name="six" unicode="6" 
d="M601 266q0 -139 -71 -207.5t-201 -68.5q-147 0 -221 87.5t-74 283.5q0 193 87 296t255 103q104 0 180 -28l-14 -167q-68 23 -141 23q-78 0 -116 -30t-50 -94l2 -2q54 31 125 31q239 0 239 -227zM402 269q0 39 -18.5 57.5t-60.5 18.5q-20 0 -46 -9.5t-36 -24.5
q1 -91 20 -123.5t66 -32.5q75 0 75 114z" />
    <glyph glyph-name="seven" unicode="7" 
d="M596 749v-166l-259 -583h-229l289 563h-360l10 186h549z" />
    <glyph glyph-name="eight" unicode="8" 
d="M33 226q0 47 23 91t67 74q-64 61 -64 163q0 98 65 152t195 54q132 0 195.5 -54t63.5 -152q0 -92 -69 -153q94 -59 94 -176q0 -235 -284 -235q-286 0 -286 236zM406 211q0 16 -7.5 29.5t-17.5 22.5t-30 18.5t-34 15t-41 14.5q-48 -39 -48 -86q0 -45 23 -63.5t74 -18.5
q81 0 81 68zM248 545q0 -34 27 -52.5t80 -34.5q43 33 43 79q0 68 -80 68q-70 0 -70 -60z" />
    <glyph glyph-name="nine" unicode="9" 
d="M599 401q0 -214 -81 -312.5t-248 -98.5q-114 0 -200 36l29 160q77 -30 152 -30q72 0 106 33t43 105l-2 2q-51 -29 -129 -29q-115 0 -175.5 63t-60.5 170q0 123 69 191.5t207 68.5q141 0 215.5 -90t74.5 -269zM397 461q-1 75 -23.5 104.5t-67.5 29.5q-79 0 -79 -87
q0 -46 19 -66.5t64 -20.5q66 0 87 40z" />
    <glyph glyph-name="colon" unicode=":" horiz-adv-x="280" 
d="M247 473q0 -99 -107 -99q-57 0 -82 23t-25 76q0 100 107 100t107 -100zM247 87q0 -99 -107 -99q-57 0 -82 23t-25 76q0 100 107 100t107 -100z" />
    <glyph glyph-name="semicolon" unicode=";" horiz-adv-x="281" 
d="M248 473q0 -99 -107 -99q-57 0 -82 23t-25 76q0 100 107 100t107 -100zM141 183q106 0 106 -108q0 -44 -32 -110t-71 -111l-68 16l25 120q-25 12 -43.5 36.5t-18.5 54.5q0 102 102 102z" />
    <glyph glyph-name="less" unicode="&#x3c;" horiz-adv-x="605" 
d="M521 424l-138 -64l-74 -31v-3l73 -33l140 -66v-176l-439 231v93l438 233v-184z" />
    <glyph glyph-name="equal" unicode="=" horiz-adv-x="605" 
d="M531 359h-458v143h458v-143zM531 144h-458v143h458v-143z" />
    <glyph glyph-name="greater" unicode="&#x3e;" horiz-adv-x="605" 
d="M83 51v176l139 66l74 33v3l-75 32l-137 63v184l438 -233v-93z" />
    <glyph glyph-name="question" unicode="?" horiz-adv-x="505" 
d="M485 563q0 -149 -163 -235l-7 -100h-150l-11 168q66 34 99.5 65t33.5 71q0 25 -19.5 40t-56.5 15q-78 0 -133 -47l-67 149q38 31 100.5 50.5t128.5 19.5q120 0 182.5 -52.5t62.5 -143.5zM342 77q0 -89 -103 -89q-55 0 -79.5 20.5t-24.5 68.5q0 90 104 90q103 0 103 -90z
" />
    <glyph glyph-name="at" unicode="@" horiz-adv-x="910" 
d="M454 602q56 0 91 -38l17 32l101 -6l-43 -274q-4 -26 -4 -40q0 -62 50 -62q47 0 76.5 47.5t29.5 148.5q0 131 -73.5 212t-213.5 81q-169 0 -257 -99t-88 -257q0 -165 87.5 -264t259.5 -99q183 0 307 101l42 -93q-58 -46 -149.5 -77.5t-200.5 -31.5q-212 0 -334 121
t-122 343q0 126 51.5 228.5t157 166.5t248.5 64q179 0 286 -110.5t107 -284.5q0 -160 -67 -238.5t-161 -78.5q-97 0 -135 66q-57 -66 -149 -66q-66 0 -109 51.5t-43 147.5q0 125 69 217t169 92zM478 319l19 137q-9 19 -33 19q-40 0 -67 -55t-27 -126q0 -68 42 -68
q24 0 42 25t24 68z" />
    <glyph glyph-name="A" unicode="A" horiz-adv-x="748" 
d="M517 0l-33 129h-232l-33 -129h-221l249 750h250l253 -750h-233zM368 585l-19 -79l-54 -210h147l-53 209l-18 80h-3z" />
    <glyph glyph-name="B" unicode="B" horiz-adv-x="693" 
d="M662 221q0 -221 -285 -221h-321v750h322q127 0 193 -52t66 -143q0 -114 -98 -158v-2q123 -38 123 -174zM453 236q0 38 -17 54t-59 16h-120v-141h123q41 0 57 15t16 56zM437 519q0 35 -15 48.5t-52 13.5h-113v-128h115q36 0 50.5 15t14.5 51z" />
    <glyph glyph-name="C" unicode="C" horiz-adv-x="591" 
d="M567 734l-21 -172q-70 22 -140 22q-91 0 -122 -43t-31 -163q0 -126 32 -170.5t124 -44.5q75 0 139 27l21 -164q-87 -40 -190 -40q-174 0 -260 97t-86 296q0 385 360 385q95 0 174 -30z" />
    <glyph glyph-name="D" unicode="D" horiz-adv-x="729" 
d="M696 379q0 -200 -85 -289.5t-258 -89.5h-297v750h294q183 0 264.5 -89t81.5 -282zM476 380q0 116 -26 153t-101 37h-84v-392h84q51 0 76.5 14.5t38 57.5t12.5 130z" />
    <glyph glyph-name="E" unicode="E" horiz-adv-x="616" 
d="M265 175h324l-4 -175h-529v750h516l3 -177h-310v-110h256v-160h-256v-128z" />
    <glyph glyph-name="F" unicode="F" horiz-adv-x="591" 
d="M574 569h-309v-126h256l-2 -171h-254v-272h-209v750h515z" />
    <glyph glyph-name="G" unicode="G" horiz-adv-x="672" 
d="M630 406v-379q-95 -41 -230 -41q-195 0 -281 97t-86 292t90 291.5t284 96.5q119 0 213 -33l-20 -174q-84 30 -181 30q-101 0 -133.5 -42.5t-32.5 -166.5q0 -127 29 -169.5t112 -42.5q29 0 50 4v237h186z" />
    <glyph glyph-name="H" unicode="H" horiz-adv-x="735" 
d="M679 0h-209v290h-205v-290h-209v750h209v-280h205v280h209v-750z" />
    <glyph glyph-name="I" unicode="I" horiz-adv-x="344" 
d="M65 0v750h214v-750h-214z" />
    <glyph glyph-name="J" unicode="J" horiz-adv-x="551" 
d="M495 750v-463q0 -161 -81.5 -231t-236.5 -70q-85 0 -149 27l11 169q38 -20 104 -20q71 0 105 30t34 98v460h213z" />
    <glyph glyph-name="K" unicode="K" horiz-adv-x="730" 
d="M726 0h-250l-155 301h-56v-301h-209v750h209v-287h59l154 287h237l-202 -357z" />
    <glyph glyph-name="L" unicode="L" horiz-adv-x="565" 
d="M267 180h283l-4 -180h-490v750h211v-570z" />
    <glyph glyph-name="M" unicode="M" horiz-adv-x="927" 
d="M56 750h229l149 -383l28 -76h3l27 75l151 384h228v-750h-191v316l2 81l-3 1l-28 -77l-123 -321h-137l-123 323l-27 77l-2 -1l1 -81v-318h-184v750z" />
    <glyph glyph-name="N" unicode="N" horiz-adv-x="741" 
d="M685 0h-146l-250 346l-46 67l-2 -1l1 -81v-331h-186v750h174l224 -322l46 -67l2 1l-2 80v308h185v-750z" />
    <glyph glyph-name="O" unicode="O" horiz-adv-x="752" 
d="M719 375q0 -203 -81.5 -296t-261.5 -93q-178 0 -260.5 95t-82.5 294q0 200 82 293.5t261 93.5t261 -93.5t82 -293.5zM499 375q0 126 -25.5 166.5t-98.5 40.5q-71 0 -96.5 -41.5t-25.5 -165.5q0 -125 26 -167.5t98 -42.5q71 0 96.5 42.5t25.5 167.5z" />
    <glyph glyph-name="P" unicode="P" horiz-adv-x="671" 
d="M648 482q0 -125 -74.5 -191t-237.5 -66h-71v-225h-209v750h280q164 0 238 -65.5t74 -202.5zM432 483q0 59 -20 79.5t-76 20.5h-71v-198h71q55 0 75.5 19t20.5 79z" />
    <glyph glyph-name="Q" unicode="Q" horiz-adv-x="752" 
d="M719 375q0 -150 -44 -239t-137 -125l129 -105l-229 -58l-86 139q-165 6 -242 101t-77 287q0 200 82 293.5t261 93.5t261 -93.5t82 -293.5zM499 375q0 126 -25.5 166.5t-98.5 40.5q-71 0 -96.5 -41.5t-25.5 -165.5q0 -125 26 -167.5t98 -42.5q71 0 96.5 42.5t25.5 167.5z
" />
    <glyph glyph-name="R" unicode="R" horiz-adv-x="691" 
d="M645 507q0 -75 -29.5 -129t-83.5 -76l163 -302h-244l-110 261h-76v-261h-209v750h286q152 0 227.5 -59t75.5 -184zM427 499q0 49 -18 66.5t-65 17.5h-79v-172h77q48 0 66.5 17.5t18.5 70.5z" />
    <glyph glyph-name="S" unicode="S" horiz-adv-x="583" 
d="M562 230q0 -113 -78 -178.5t-213 -65.5q-132 0 -239 55l26 173q108 -54 211 -54q93 0 93 57q0 21 -24.5 37t-61 26.5t-79 29t-79 42t-61 68t-24.5 103.5q0 106 71.5 173t214.5 67q121 0 218 -38l-24 -169q-99 29 -182 29q-56 0 -76.5 -13t-20.5 -38q0 -21 24.5 -37.5
t60.5 -26.5t79 -28t79 -41t60.5 -67.5t24.5 -103.5z" />
    <glyph glyph-name="T" unicode="T" horiz-adv-x="606" 
d="M596 569h-188v-569h-211v569h-187l4 181h578z" />
    <glyph glyph-name="U" unicode="U" horiz-adv-x="720" 
d="M673 750v-482q0 -282 -312 -282q-314 0 -314 282v482h209v-480q0 -53 25 -77.5t81 -24.5t79.5 24t23.5 78v480h208z" />
    <glyph glyph-name="V" unicode="V" horiz-adv-x="721" 
d="M508 750h217l-248 -750h-233l-247 750h230l119 -461l19 -78h3l18 78z" />
    <glyph glyph-name="W" unicode="W" horiz-adv-x="1052" 
d="M418 750h225l86 -464l14 -80h3l11 80l77 464h207l-174 -750h-249l-78 452l-12 81h-3l-13 -81l-78 -452h-249l-174 750h218l75 -467l12 -80h3l13 80z" />
    <glyph glyph-name="X" unicode="X" horiz-adv-x="721" 
d="M708 750l-201 -356l206 -394h-236l-82 178l-31 75h-3l-32 -75l-80 -178h-241l201 387l-198 363h247l71 -153l33 -73h3l33 73l73 153h237z" />
    <glyph glyph-name="Y" unicode="Y" horiz-adv-x="714" 
d="M-3 750h234l102 -253l29 -75h3l27 76l98 252h228l-251 -518v-232h-214v232z" />
    <glyph glyph-name="Z" unicode="Z" horiz-adv-x="618" 
d="M585 0h-558v131l259 372l47 64l-1 2h-299l6 181h545v-146l-250 -358l-47 -63l1 -3h300z" />
    <glyph glyph-name="bracketleft" unicode="[" horiz-adv-x="367" 
d="M67 -133v913h297v-129h-123v-658h123v-126h-297z" />
    <glyph glyph-name="backslash" unicode="\" horiz-adv-x="372" 
d="M-28 779h157l290 -898h-156z" />
    <glyph glyph-name="bracketright" unicode="]" horiz-adv-x="367" 
d="M300 780v-913h-297v126h123v658h-123v129h297z" />
    <glyph glyph-name="asciicircum" unicode="^" 
d="M442 464l-124 199l-123 -199h-152l211 340h131l207 -340h-150z" />
    <glyph glyph-name="underscore" unicode="_" horiz-adv-x="408" 
d="M7 -35h395v-110h-395v110z" />
    <glyph glyph-name="grave" unicode="`" horiz-adv-x="409" 
d="M334 653h-145l-126 146h216z" />
    <glyph glyph-name="a" unicode="a" horiz-adv-x="585" 
d="M393 0l-14 50q-63 -60 -159 -60q-91 0 -141 52t-50 153q0 86 58.5 139.5t159.5 53.5q56 0 103 -13v22q0 35 -23.5 52.5t-77.5 17.5q-81 0 -167 -31l-15 146q93 40 218 40q141 0 198.5 -60.5t57.5 -191.5v-370h-148zM350 191v62q-32 9 -66 9q-75 0 -75 -65q0 -62 64 -62
q32 0 54.5 16t22.5 40z" />
    <glyph glyph-name="b" unicode="b" horiz-adv-x="638" 
d="M612 308q0 -162 -66 -241t-187 -79q-93 0 -153 57l-22 -45h-130v773l192 9v-123l-2 -80l3 -2q57 45 135 45q110 0 170 -77t60 -237zM413 304q0 97 -19.5 127t-67.5 30q-53 0 -80 -40v-243q28 -42 81 -42q45 0 65.5 34t20.5 134z" />
    <glyph glyph-name="c" unicode="c" horiz-adv-x="490" 
d="M462 597l-10 -156q-54 15 -93 15q-76 0 -104.5 -33.5t-28.5 -120.5q0 -156 129 -156q53 0 100 18l13 -144q-56 -32 -155 -32q-141 0 -214 79.5t-73 234.5q0 319 291 319q82 0 145 -24z" />
    <glyph glyph-name="d" unicode="d" horiz-adv-x="637" 
d="M584 0h-150l-17 48q-62 -60 -157 -60q-234 0 -234 321q0 150 59 232t171 82q78 0 136 -47l2 2l-2 80v115l192 9v-782zM392 178v246q-27 34 -78 34q-50 0 -69.5 -33.5t-19.5 -122.5q0 -97 18.5 -130.5t71.5 -33.5q54 0 77 40z" />
    <glyph glyph-name="e" unicode="e" horiz-adv-x="591" 
d="M344 -11q-318 0 -318 321q0 150 69.5 231t210.5 81q125 0 192.5 -71.5t67.5 -213.5q0 -44 -5 -86h-335q6 -55 40 -78.5t102 -23.5q85 0 161 25l21 -148q-86 -37 -206 -37zM222 372h168q-1 51 -21.5 74t-61.5 23q-44 0 -62.5 -21t-22.5 -76z" />
    <glyph glyph-name="f" unicode="f" horiz-adv-x="406" 
d="M276 0h-192v474h-69v138h68v24q0 70 55 117t161 47q55 0 104 -14l-11 -120q-26 6 -52 6q-64 0 -64 -40v-20h115v-138h-115v-474z" />
    <glyph glyph-name="g" unicode="g" horiz-adv-x="595" 
d="M288 240q-38 0 -67 4q-10 -8 -10 -20q0 -21 32 -22l144 -7q104 -5 151.5 -45t47.5 -115q0 -97 -72 -150t-221 -53q-130 0 -193.5 44t-63.5 116q0 54 42 92q-45 35 -45 91q0 72 75 111q-66 47 -66 143q0 88 59 140.5t186 52.5q93 0 154 -31l105 31l40 -88l-61 -50
q6 -24 6 -55q0 -189 -243 -189zM353 40l-141 9q-14 -17 -14 -33q0 -24 21.5 -35t69.5 -11q72 0 99 9.5t27 28.5q0 16 -12.5 23t-49.5 9zM289 484q-32 0 -44.5 -13t-12.5 -46t13 -46t40 -13q35 0 48 12.5t13 46.5q0 33 -12.5 46t-44.5 13z" />
    <glyph glyph-name="h" unicode="h" horiz-adv-x="638" 
d="M593 0h-193v382q0 78 -74 78q-52 0 -80 -35v-425h-192v773l192 9v-121l-2 -80l3 -2q58 44 141 44q96 0 150.5 -64t54.5 -177v-382z" />
    <glyph glyph-name="i" unicode="i" horiz-adv-x="324" 
d="M260 0h-197v606l197 9v-615zM266 732q0 -75 -104 -75q-55 0 -80 17t-25 58q0 75 105 75q104 0 104 -75z" />
    <glyph glyph-name="j" unicode="j" horiz-adv-x="324" 
d="M262 615v-602q0 -97 -53.5 -139t-139.5 -42q-51 0 -91 14l9 129q18 -5 34 -5q48 0 48 48v589zM267 732q0 -74 -105 -74q-55 0 -80 17t-25 57q0 75 105 75t105 -75z" />
    <glyph glyph-name="k" unicode="k" horiz-adv-x="635" 
d="M246 782v-381h68l99 211h210l-145 -278l149 -334h-214l-100 251h-67v-251h-192v773z" />
    <glyph glyph-name="l" unicode="l" horiz-adv-x="309" 
d="M252 0h-195v773l195 9v-782z" />
    <glyph glyph-name="m" unicode="m" horiz-adv-x="954" 
d="M909 0h-192v382q0 77 -71 77q-70 0 -70 -74v-385h-193v385q0 74 -70 74q-47 0 -71 -34v-425h-192v607l138 8l30 -52q68 60 153 60q108 0 158 -76q63 76 171 76q95 0 152 -61t57 -176v-386z" />
    <glyph glyph-name="n" unicode="n" horiz-adv-x="634" 
d="M589 0h-193v382q0 41 -18 59.5t-56 18.5q-53 0 -80 -35v-425h-192v608l138 8l27 -48q69 55 162 55q98 0 155 -63t57 -178v-382z" />
    <glyph glyph-name="o" unicode="o" horiz-adv-x="630" 
d="M604 303q0 -168 -68.5 -242.5t-220.5 -74.5q-151 0 -220 75t-69 242t69.5 243.5t220.5 76.5t219.5 -76t68.5 -244zM226 303q0 -99 19.5 -133t70.5 -34t70 34t19 133q0 100 -19 133.5t-70 33.5q-52 0 -71 -33.5t-19 -133.5z" />
    <glyph glyph-name="p" unicode="p" horiz-adv-x="634" 
d="M608 307q0 -154 -63.5 -235.5t-172.5 -81.5q-80 0 -128 41l-3 -1l2 -81v-106h-193v764l134 8l35 -48q66 55 156 55q118 0 175.5 -73t57.5 -242zM409 308q0 89 -19 120t-68 31q-53 0 -79 -39v-236q27 -41 77 -41q45 0 67 34t22 131z" />
    <glyph glyph-name="q" unicode="q" horiz-adv-x="635" 
d="M584 -157h-193v99l2 80l-2 2q-51 -33 -126 -33q-110 0 -174.5 78t-64.5 234q0 155 61 237t183 82q106 0 169 -60l21 49h124v-768zM391 183v241q-24 33 -78 33q-52 0 -69.5 -29.5t-17.5 -124.5q0 -88 20 -122.5t70 -34.5q58 0 75 37z" />
    <glyph glyph-name="r" unicode="r" horiz-adv-x="466" 
d="M243 0h-193v607l153 7l17 -88h3q55 96 157 96q42 0 69 -10l-11 -182q-33 10 -71 10q-57 0 -90.5 -35.5t-33.5 -99.5v-305z" />
    <glyph glyph-name="s" unicode="s" horiz-adv-x="500" 
d="M475 198q0 -99 -59.5 -154.5t-184.5 -55.5q-115 0 -194 38l19 152q75 -39 174 -39q67 0 67 42q0 18 -20 30t-49.5 18.5t-64 20t-64 31.5t-49.5 55t-20 88q0 89 61.5 143.5t181.5 54.5q94 0 178 -34l-14 -150q-74 29 -167 29q-56 0 -56 -35q0 -17 19.5 -28.5t48.5 -18
t62.5 -19.5t62.5 -30.5t48.5 -53t19.5 -84.5z" />
    <glyph glyph-name="t" unicode="t" horiz-adv-x="409" 
d="M393 473h-127v-281q0 -29 15 -42.5t48 -13.5q28 0 47 7l10 -134q-38 -19 -116 -19q-98 0 -147.5 52t-49.5 145v286h-58v139h68l31 130l152 13v-143h127v-139z" />
    <glyph glyph-name="u" unicode="u" horiz-adv-x="628" 
d="M584 612v-389q0 -234 -270 -234q-269 0 -269 234v389h192v-386q0 -73 78 -73q40 0 58 17.5t18 55.5v386h193z" />
    <glyph glyph-name="v" unicode="v" horiz-adv-x="661" 
d="M446 612h209l-214 -612h-223l-212 612h209l94 -355l20 -78h3l19 78z" />
    <glyph glyph-name="w" unicode="w" horiz-adv-x="901" 
d="M354 612h200l63 -361l13 -80h3l10 80l53 361h188l-131 -612h-235l-49 320l-10 81h-3l-11 -81l-51 -320h-235l-141 612h193l57 -362l12 -80h3l11 80z" />
    <glyph glyph-name="x" unicode="x" horiz-adv-x="638" 
d="M406 0l-63 141l-30 75h-3l-30 -76l-58 -140h-212l175 308l-172 304h223l56 -131l31 -75h3l30 75l56 131h213l-163 -300l166 -312h-222z" />
    <glyph glyph-name="y" unicode="y" horiz-adv-x="663" 
d="M177 -35q66 0 87 49l2 6l-260 592h218l108 -326l24 -77h3l17 79l77 324h204l-202 -598q-35 -97 -94 -141.5t-149 -44.5q-60 0 -110 19l14 130q29 -12 61 -12z" />
    <glyph glyph-name="z" unicode="z" horiz-adv-x="536" 
d="M498 482l-198 -265l-49 -61l1 -3h256l-4 -153h-473v130l197 264l49 62l-1 2h-239l6 154h455v-130z" />
    <glyph glyph-name="braceleft" unicode="{" horiz-adv-x="396" 
d="M289 438q0 -76 -57 -113q57 -35 57 -111q0 -28 -4 -72t-4 -65q0 -33 20 -55t57 -22h35v-137h-26q-138 0 -198 48t-60 142q0 27 6.5 83.5t6.5 79.5q0 27 -15.5 46.5t-39.5 26.5v73q24 7 39.5 26.5t15.5 46.5q0 23 -6.5 79.5t-6.5 83.5q0 94 60 142t198 48h26v-137h-35
q-37 0 -57 -22t-20 -55q0 -22 4 -65.5t4 -70.5z" />
    <glyph glyph-name="bar" unicode="|" horiz-adv-x="296" 
d="M74 -178v982h149v-982h-149z" />
    <glyph glyph-name="braceright" unicode="}" horiz-adv-x="396" 
d="M107 214q0 76 57 111q-57 37 -57 113q0 28 4.5 71t4.5 65q0 33 -20 55t-57 22h-36v137h26q138 0 198 -48t60 -142q0 -27 -6.5 -83.5t-6.5 -79.5q0 -27 15.5 -46.5t39.5 -26.5v-73q-24 -7 -39.5 -26.5t-15.5 -46.5q0 -23 6.5 -79.5t6.5 -83.5q0 -94 -60 -142t-198 -48h-26
v137h36q37 0 57 22t20 55q0 21 -4.5 65t-4.5 72z" />
    <glyph glyph-name="asciitilde" unicode="~" 
d="M166 572h-108q6 212 157 212q43 0 110.5 -31t93.5 -31q21 0 34.5 14.5t16.5 33.5h107q-2 -105 -42.5 -159t-113.5 -54q-43 0 -108.5 31.5t-91.5 31.5q-22 0 -37 -14t-18 -34z" />
    <glyph glyph-name="uni00A0" unicode="&#xa0;" horiz-adv-x="245" 
 />
    <glyph glyph-name="exclamdown" unicode="&#xa1;" horiz-adv-x="302" 
d="M73 427h157l22 -559h-202zM45 567q0 89 103 89q54 0 78.5 -20.5t24.5 -68.5q0 -90 -103 -90t-103 90z" />
    <glyph glyph-name="cent" unicode="&#xa2;" horiz-adv-x="502" 
d="M467 597l-10 -156q-54 15 -93 15q-76 0 -104.5 -33.5t-28.5 -120.5q0 -156 129 -156q53 0 100 18l13 -144q-38 -21 -100 -29l-8 -111h-148l9 118q-195 47 -195 304q0 281 227 314l10 113h148l-11 -116q33 -6 62 -16z" />
    <glyph glyph-name="sterling" unicode="&#xa3;" horiz-adv-x="617" 
d="M39 296l-8 147h46q-18 52 -18 90q0 101 75 166t242 65q96 0 187 -28l-24 -170q-70 21 -140 21q-126 0 -126 -78q0 -33 11 -66h240v-147h-205q1 -6 1 -18q0 -74 -57 -111l2 -3q73 18 167 18q84 0 160 -12q0 -1 -4 -87.5t-6 -90.5q-124 15 -250 15q-155 0 -293 -12l-9 174
q41 5 66 33.5t25 64.5q0 9 -2 29h-80z" />
    <glyph glyph-name="currency" unicode="&#xa4;" horiz-adv-x="621" 
d="M105 365q0 47 21 92l-73 74l99 102l77 -78q39 17 82 17q42 0 81 -17l78 78l99 -102l-74 -75q21 -40 21 -91q0 -41 -16 -81l68 -68l-99 -102l-66 66q-42 -22 -92 -22t-94 22l-66 -67l-99 103l68 68q-15 38 -15 81zM229 368q0 -33 23.5 -56t57.5 -23t57.5 23t23.5 56
t-23.5 56.5t-57.5 23.5t-57.5 -23.5t-23.5 -56.5z" />
    <glyph glyph-name="yen" unicode="&#xa5;" horiz-adv-x="713" 
d="M114 376h85l-178 374h235l82 -293l20 -78h3l19 78l82 293h230l-173 -374h93v-99h-137v-37h137v-99h-137v-141h-231v141h-130v99h130v37h-130v99z" />
    <glyph glyph-name="brokenbar" unicode="&#xa6;" horiz-adv-x="296" 
d="M74 372v432h149v-432h-149zM74 -162v425h149v-425h-149z" />
    <glyph glyph-name="section" unicode="&#xa7;" horiz-adv-x="574" 
d="M34 318q0 95 78 149q-61 53 -61 119q0 92 65.5 140t189.5 48t204 -37l-12 -139q-96 32 -181 32q-67 0 -67 -36q0 -19 30.5 -35.5t74 -34t87.5 -41.5t74.5 -68t30.5 -103q0 -95 -78 -150q61 -53 61 -118q0 -93 -65.5 -141t-189.5 -48q-122 0 -204 38l12 138
q93 -31 181 -31q67 0 67 36q0 19 -30.5 35.5t-74.5 34t-87.5 41.5t-74 68t-30.5 103zM361 292q0 26 -27 46.5t-83 48.5q-31 -18 -31 -49q0 -26 27.5 -47t82.5 -48q31 19 31 49z" />
    <glyph glyph-name="dieresis" unicode="&#xa8;" horiz-adv-x="409" 
d="M185 732q0 -73 -78 -73q-40 0 -59 17t-19 56q0 75 78 75t78 -75zM381 732q0 -73 -78 -73q-40 0 -59 17t-19 56q0 75 78 75t78 -75z" />
    <glyph glyph-name="copyright" unicode="&#xa9;" horiz-adv-x="851" 
d="M34 378q0 161 115 275.5t277 114.5q161 0 276 -114.5t115 -275.5q0 -162 -115 -276.5t-276 -114.5q-162 0 -277 114.5t-115 276.5zM129 377q0 -122 86.5 -210t210.5 -88t211 87.5t87 210.5q0 120 -87.5 206.5t-210.5 86.5q-124 0 -210.5 -86t-86.5 -207zM599 571
q-8 -86 -13 -130q-47 27 -107 27q-55 0 -84 -25t-29 -66q0 -44 29.5 -68t86.5 -24q62 0 106 26q13 -89 17 -125q-30 -28 -78.5 -48t-98.5 -20q-110 0 -182 75t-72 183q0 104 70.5 179t185.5 75q99 0 169 -59z" />
    <glyph glyph-name="ordfeminine" unicode="&#xaa;" horiz-adv-x="459" 
d="M300 318l-13 37q-45 -45 -115 -45q-71 0 -110.5 43t-39.5 126q0 70 46 115t122 45q41 0 74 -10v15q0 23 -17.5 34.5t-61.5 11.5q-61 0 -121 -24l-12 128q80 32 169 32q112 0 158 -49.5t46 -158.5v-300h-125zM263 476v47q-17 5 -40 5q-48 0 -48 -47q0 -43 41 -43
q20 0 33.5 10.5t13.5 27.5z" />
    <glyph glyph-name="guillemotleft" unicode="&#xab;" horiz-adv-x="668" 
d="M620 409l-141 -92l141 -91v-142l-326 227v13l326 227v-142zM345 409l-141 -92l141 -91v-142l-326 227v13l326 227v-142z" />
    <glyph glyph-name="logicalnot" unicode="&#xac;" 
d="M395 258h-309v158h464v-304h-155v146z" />
    <glyph glyph-name="registered" unicode="&#xae;" horiz-adv-x="435" 
d="M19 633q0 83 58.5 142t141.5 59q82 0 140 -59t58 -142q0 -82 -58 -140.5t-140 -58.5t-141 58.5t-59 140.5zM70 633q0 -61 44 -104.5t105 -43.5t104.5 43.5t43.5 104.5t-43.5 105t-104.5 44t-105 -44t-44 -105zM319 668q0 -39 -29 -56l30 -77h-80l-21 66h-16v-66h-77v205
h99q94 0 94 -72zM245 664q0 16 -20 16h-22v-32h23q19 0 19 16z" />
    <glyph glyph-name="macron" unicode="&#xaf;" horiz-adv-x="409" 
d="M377 784v-112h-342v112h342z" />
    <glyph glyph-name="degree" unicode="&#xb0;" horiz-adv-x="340" 
d="M23 670q0 62 42.5 105t104.5 43q61 0 104 -43t43 -105t-43 -105t-104 -43t-104 43t-43 105zM107 670q0 -27 17.5 -44.5t45.5 -17.5t45.5 17.5t17.5 44.5t-17.5 45t-45.5 18t-45.5 -18t-17.5 -45z" />
    <glyph glyph-name="plusminus" unicode="&#xb1;" 
d="M556 327h-155v-140h-169v140h-152v156h152v144h169v-144h155v-156zM555 18h-475v138h475v-138z" />
    <glyph glyph-name="twosuperior" unicode="&#xb2;" horiz-adv-x="385" 
d="M355 759q0 -48 -35 -83.5t-112 -83.5v-3h145l-2 -103h-313v81q24 21 59.5 49t52 42t35.5 32t26 31t7 26q0 32 -51 32q-45 0 -108 -33l-30 98q68 41 163 41q81 0 122 -34.5t41 -91.5z" />
    <glyph glyph-name="threesuperior" unicode="&#xb3;" horiz-adv-x="385" 
d="M361 604q0 -124 -183 -124q-88 0 -146 34l27 93q61 -28 118 -28t57 31q0 11 -6 17.5t-29.5 11.5t-66.5 5v84q41 0 63.5 4t29 10t6.5 17q0 25 -54 25q-68 0 -118 -32l-30 92q66 41 153 41q81 0 125.5 -31t44.5 -85t-54 -80v-2q63 -24 63 -83z" />
    <glyph glyph-name="acute" unicode="&#xb4;" horiz-adv-x="409" 
d="M184 799h217l-124 -146h-143z" />
    <glyph glyph-name="paragraph" unicode="&#xb6;" horiz-adv-x="723" 
d="M344 -164h-167v612q-73 4 -117 44t-44 114q0 64 45.5 104t123.5 40h509l-8 -149h-73v-765h-167v765h-103z" />
    <glyph glyph-name="periodcentered" unicode="&#xb7;" horiz-adv-x="304" 
d="M258 346q0 -99 -107 -99q-57 0 -82 23t-25 76q0 100 107 100t107 -100z" />
    <glyph glyph-name="cedilla" unicode="&#xb8;" horiz-adv-x="409" 
d="M93 -188l77 205l126 2l-34 -207h-169z" />
    <glyph glyph-name="onesuperior" unicode="&#xb9;" horiz-adv-x="293" 
d="M246 880v-394h-131v251l-76 -40l-11 103l135 80h83z" />
    <glyph glyph-name="ordmasculine" unicode="&#xba;" horiz-adv-x="506" 
d="M477 569q0 -138 -53 -197.5t-171 -59.5q-117 0 -170.5 59.5t-53.5 197.5q0 137 54 197.5t170 60.5q118 0 171 -60.5t53 -197.5zM197 569q0 -79 12 -103t44 -24q33 0 44.5 24.5t11.5 102.5t-11.5 102t-44.5 24q-32 0 -44 -24t-12 -102z" />
    <glyph glyph-name="guillemotright" unicode="&#xbb;" horiz-adv-x="668" 
d="M319 84v142l141 91l-141 92v142l327 -227v-13zM44 84v142l141 91l-141 92v142l327 -227v-13z" />
    <glyph glyph-name="onequarter" unicode="&#xbc;" horiz-adv-x="903" 
d="M301 750v-394h-131v251l-76 -40l-11 103l135 80h83zM870 64h-34v-64h-121v64h-203l-10 72l178 258h156v-230h37zM719 164l8 118l-6 1l-31 -52l-45 -64l1 -3h73zM640 750h134l-494 -750h-133z" />
    <glyph glyph-name="onehalf" unicode="&#xbd;" horiz-adv-x="903" 
d="M621 750h134l-494 -750h-133zM866 273q0 -47 -34.5 -82.5t-111.5 -83.5v-3h144l-2 -104h-313v81q25 21 59.5 49.5t52 42.5t36 32t25.5 31t7 26q0 32 -51 32q-46 0 -108 -34l-30 99q68 41 163 41q81 0 122 -35t41 -92zM306 750v-394h-131v251l-76 -40l-11 103l135 80h83z
" />
    <glyph glyph-name="threequarters" unicode="&#xbe;" horiz-adv-x="903" 
d="M824 64h-34v-64h-121v64h-203l-10 72l178 258h156v-230h37zM673 164l8 118l-6 1l-31 -52l-45 -64l1 -3h73zM631 750h134l-494 -750h-133zM375 474q0 -124 -183 -124q-88 0 -146 34l27 93q61 -28 118 -28t57 31q0 11 -6 17.5t-29.5 11.5t-66.5 5v84q41 0 63.5 4t29 10
t6.5 17q0 25 -54 25q-68 0 -118 -32l-30 92q63 41 153 41q81 0 125.5 -31t44.5 -85t-54 -80v-2q63 -24 63 -83z" />
    <glyph glyph-name="questiondown" unicode="&#xbf;" horiz-adv-x="488" 
d="M16 95q0 149 164 235l7 100h150l10 -168q-65 -34 -98.5 -65t-33.5 -71q0 -25 19.5 -40t55.5 -15q80 0 134 48l67 -150q-38 -31 -100.5 -50.5t-128.5 -19.5q-120 0 -183 52.5t-63 143.5zM160 581q0 89 103 89q55 0 79.5 -20.5t24.5 -68.5q0 -90 -104 -90q-103 0 -103 90z
" />
    <glyph glyph-name="Agrave" unicode="&#xc0;" horiz-adv-x="748" 
d="M517 0l-33 129h-232l-33 -129h-221l249 750h250l253 -750h-233zM368 585l-19 -79l-54 -210h147l-53 209l-18 80h-3zM463 791h-155l-132 123h223z" />
    <glyph glyph-name="Aacute" unicode="&#xc1;" horiz-adv-x="748" 
d="M517 0l-33 129h-232l-33 -129h-221l249 750h250l253 -750h-233zM368 585l-19 -79l-54 -210h147l-53 209l-18 80h-3zM338 912h240l-144 -122h-153z" />
    <glyph glyph-name="Acircumflex" unicode="&#xc2;" horiz-adv-x="748" 
d="M517 0l-33 129h-232l-33 -129h-221l249 750h250l253 -750h-233zM368 585l-19 -79l-54 -210h147l-53 209l-18 80h-3zM266 912h205l101 -122h-165l-38 45l-38 -45h-162z" />
    <glyph glyph-name="Atilde" unicode="&#xc3;" horiz-adv-x="748" 
d="M517 0l-33 129h-232l-33 -129h-221l249 750h250l253 -750h-233zM368 585l-19 -79l-54 -210h147l-53 209l-18 80h-3zM272 791l-86 1q2 57 32.5 92t82.5 35q41 0 89 -15.5t59 -15.5q23 0 27 21l82 -1q-1 -58 -33 -92.5t-83 -34.5q-40 0 -85 16t-56 16q-25 0 -29 -22z" />
    <glyph glyph-name="Adieresis" unicode="&#xc4;" horiz-adv-x="748" 
d="M517 0l-33 129h-232l-33 -129h-221l249 750h250l253 -750h-233zM368 585l-19 -79l-54 -210h147l-53 209l-18 80h-3zM346 856q0 -69 -77 -69q-40 0 -58.5 16t-18.5 53q0 71 77 71t77 -71zM549 856q0 -69 -78 -69q-39 0 -58 16t-19 53q0 71 77 71q78 0 78 -71z" />
    <glyph glyph-name="Aring" unicode="&#xc5;" horiz-adv-x="748" 
d="M219 803q0 54 33 81.5t114 27.5q152 0 152 -109q0 -42 -17 -66l249 -737h-233l-33 129h-232l-33 -129h-221l242 729q-21 24 -21 74zM368 585l-19 -79l-54 -210h147l-53 209l-18 80h-3zM317 796q0 -17 10.5 -24t43.5 -7q29 0 40 7t11 24q0 18 -10.5 26.5t-40.5 8.5
q-33 0 -43.5 -8t-10.5 -27z" />
    <glyph glyph-name="AE" unicode="&#xc6;" horiz-adv-x="1070" 
d="M1030 573h-304l4 -110h245v-160h-238l5 -128h301l-4 -175h-502l-5 131h-224l-57 -131h-247l395 750h628zM514 608l-31 -75l-104 -238h147l-8 231l-1 81z" />
    <glyph glyph-name="Ccedilla" unicode="&#xc7;" horiz-adv-x="591" 
d="M241 -188l67 179q-275 36 -275 388q0 385 360 385q95 0 174 -30l-21 -172q-70 22 -140 22q-91 0 -122 -43t-31 -163q0 -126 32 -170.5t124 -44.5q75 0 139 27l21 -164q-58 -27 -130 -36l-29 -178h-169z" />
    <glyph glyph-name="Egrave" unicode="&#xc8;" horiz-adv-x="616" 
d="M265 175h324l-4 -175h-529v750h516l3 -177h-310v-110h256v-160h-256v-128zM414 791h-155l-132 123h223z" />
    <glyph glyph-name="Eacute" unicode="&#xc9;" horiz-adv-x="616" 
d="M265 175h324l-4 -175h-529v750h516l3 -177h-310v-110h256v-160h-256v-128zM289 912h240l-144 -122h-153z" />
    <glyph glyph-name="Ecircumflex" unicode="&#xca;" horiz-adv-x="616" 
d="M265 175h324l-4 -175h-529v750h516l3 -177h-310v-110h256v-160h-256v-128zM217 912h205l101 -122h-165l-38 45l-38 -45h-162z" />
    <glyph glyph-name="Edieresis" unicode="&#xcb;" horiz-adv-x="616" 
d="M265 175h324l-4 -175h-529v750h516l3 -177h-310v-110h256v-160h-256v-128zM297 856q0 -69 -77 -69q-40 0 -58.5 16t-18.5 53q0 71 77 71t77 -71zM500 856q0 -69 -78 -69q-39 0 -58 16t-19 53q0 71 77 71q78 0 78 -71z" />
    <glyph glyph-name="Igrave" unicode="&#xcc;" horiz-adv-x="344" 
d="M65 0v750h214v-750h-214zM264 791h-155l-132 123h223z" />
    <glyph glyph-name="Iacute" unicode="&#xcd;" horiz-adv-x="344" 
d="M65 0v750h214v-750h-214zM138 912h240l-144 -122h-153z" />
    <glyph glyph-name="Icircumflex" unicode="&#xce;" horiz-adv-x="344" 
d="M65 0v750h214v-750h-214zM67 912h205l101 -122h-165l-38 45l-38 -45h-162z" />
    <glyph glyph-name="Idieresis" unicode="&#xcf;" horiz-adv-x="344" 
d="M65 0v750h214v-750h-214zM147 856q0 -69 -77 -69q-40 0 -58.5 16t-18.5 53q0 71 77 71t77 -71zM350 856q0 -69 -78 -69q-39 0 -58 16t-19 53q0 71 77 71q78 0 78 -71z" />
    <glyph glyph-name="Eth" unicode="&#xd0;" horiz-adv-x="741" 
d="M708 379q0 -200 -85 -289.5t-258 -89.5h-297v329h-53v118h53v303h294q183 0 264.5 -89t81.5 -282zM488 380q0 116 -26 153t-101 37h-84v-123h69v-118h-69v-151h84q51 0 76.5 14.5t38 57.5t12.5 130z" />
    <glyph glyph-name="Ntilde" unicode="&#xd1;" horiz-adv-x="741" 
d="M685 0h-146l-250 346l-46 67l-2 -1l1 -81v-331h-186v750h174l224 -322l46 -67l2 1l-2 80v308h185v-750zM273 791l-86 1q2 57 32.5 92t82.5 35q41 0 89 -15.5t59 -15.5q23 0 27 21l82 -1q-1 -58 -33 -92.5t-83 -34.5q-40 0 -85 16t-56 16q-25 0 -29 -22z" />
    <glyph glyph-name="Ograve" unicode="&#xd2;" horiz-adv-x="752" 
d="M719 375q0 -203 -81.5 -296t-261.5 -93q-178 0 -260.5 95t-82.5 294q0 200 82 293.5t261 93.5t261 -93.5t82 -293.5zM499 375q0 126 -25.5 166.5t-98.5 40.5q-71 0 -96.5 -41.5t-25.5 -165.5q0 -125 26 -167.5t98 -42.5q71 0 96.5 42.5t25.5 167.5zM479 791h-155
l-132 123h223z" />
    <glyph glyph-name="Oacute" unicode="&#xd3;" horiz-adv-x="752" 
d="M719 375q0 -203 -81.5 -296t-261.5 -93q-178 0 -260.5 95t-82.5 294q0 200 82 293.5t261 93.5t261 -93.5t82 -293.5zM499 375q0 126 -25.5 166.5t-98.5 40.5q-71 0 -96.5 -41.5t-25.5 -165.5q0 -125 26 -167.5t98 -42.5q71 0 96.5 42.5t25.5 167.5zM344 912h240
l-144 -122h-153z" />
    <glyph glyph-name="Ocircumflex" unicode="&#xd4;" horiz-adv-x="752" 
d="M719 375q0 -203 -81.5 -296t-261.5 -93q-178 0 -260.5 95t-82.5 294q0 200 82 293.5t261 93.5t261 -93.5t82 -293.5zM499 375q0 126 -25.5 166.5t-98.5 40.5q-71 0 -96.5 -41.5t-25.5 -165.5q0 -125 26 -167.5t98 -42.5q71 0 96.5 42.5t25.5 167.5zM273 912h205l101 -122
h-165l-38 45l-38 -45h-162z" />
    <glyph glyph-name="Otilde" unicode="&#xd5;" horiz-adv-x="752" 
d="M719 375q0 -203 -81.5 -296t-261.5 -93q-178 0 -260.5 95t-82.5 294q0 200 82 293.5t261 93.5t261 -93.5t82 -293.5zM499 375q0 126 -25.5 166.5t-98.5 40.5q-71 0 -96.5 -41.5t-25.5 -165.5q0 -125 26 -167.5t98 -42.5q71 0 96.5 42.5t25.5 167.5zM279 791l-86 1
q2 57 32.5 92t82.5 35q41 0 89 -15.5t59 -15.5q23 0 27 21l82 -1q-1 -58 -33 -92.5t-83 -34.5q-40 0 -85 16t-56 16q-25 0 -29 -22z" />
    <glyph glyph-name="Odieresis" unicode="&#xd6;" horiz-adv-x="752" 
d="M719 375q0 -203 -81.5 -296t-261.5 -93q-178 0 -260.5 95t-82.5 294q0 200 82 293.5t261 93.5t261 -93.5t82 -293.5zM499 375q0 126 -25.5 166.5t-98.5 40.5q-71 0 -96.5 -41.5t-25.5 -165.5q0 -125 26 -167.5t98 -42.5q71 0 96.5 42.5t25.5 167.5zM353 856
q0 -69 -77 -69q-40 0 -58.5 16t-18.5 53q0 71 77 71t77 -71zM556 856q0 -69 -78 -69q-39 0 -58 16t-19 53q0 71 77 71q78 0 78 -71z" />
    <glyph glyph-name="multiply" unicode="&#xd7;" horiz-adv-x="605" 
d="M538 201l-111 -114l-125 124l-124 -125l-111 114l125 124l-128 126l110 115l129 -128l128 128l110 -114l-129 -127z" />
    <glyph glyph-name="Oslash" unicode="&#xd8;" horiz-adv-x="752" 
d="M121 -19l-97 86l56 67q-47 90 -47 241q0 200 82 293.5t261 93.5q135 0 213 -53l48 56l96 -88l-58 -68q43 -89 43 -234q0 -203 -81 -296t-261 -93q-131 0 -209 50zM252 375q0 -46 1 -65l2 -1l52 61l159 182q-26 30 -91 30q-71 0 -97 -41.5t-26 -165.5zM499 375v57l-2 1
l-53 -62l-156 -178q27 -28 88 -28q72 0 97.5 42.5t25.5 167.5z" />
    <glyph glyph-name="Ugrave" unicode="&#xd9;" horiz-adv-x="720" 
d="M673 750v-482q0 -282 -312 -282q-314 0 -314 282v482h209v-480q0 -53 25 -77.5t81 -24.5t79.5 24t23.5 78v480h208zM454 791h-155l-132 123h223z" />
    <glyph glyph-name="Uacute" unicode="&#xda;" horiz-adv-x="720" 
d="M673 750v-482q0 -282 -312 -282q-314 0 -314 282v482h209v-480q0 -53 25 -77.5t81 -24.5t79.5 24t23.5 78v480h208zM329 912h240l-144 -122h-153z" />
    <glyph glyph-name="Ucircumflex" unicode="&#xdb;" horiz-adv-x="720" 
d="M673 750v-482q0 -282 -312 -282q-314 0 -314 282v482h209v-480q0 -53 25 -77.5t81 -24.5t79.5 24t23.5 78v480h208zM257 912h205l101 -122h-165l-38 45l-38 -45h-162z" />
    <glyph glyph-name="Udieresis" unicode="&#xdc;" horiz-adv-x="720" 
d="M673 750v-482q0 -282 -312 -282q-314 0 -314 282v482h209v-480q0 -53 25 -77.5t81 -24.5t79.5 24t23.5 78v480h208zM337 856q0 -69 -77 -69q-40 0 -58.5 16t-18.5 53q0 71 77 71t77 -71zM540 856q0 -69 -78 -69q-39 0 -58 16t-19 53q0 71 77 71q78 0 78 -71z" />
    <glyph glyph-name="Yacute" unicode="&#xdd;" horiz-adv-x="714" 
d="M-3 750h234l102 -253l29 -75h3l27 76l98 252h228l-251 -518v-232h-214v232zM328 912h240l-144 -122h-153z" />
    <glyph glyph-name="Thorn" unicode="&#xde;" horiz-adv-x="673" 
d="M648 375q0 -126 -75.5 -191.5t-241.5 -65.5h-66v-118h-209v750h209v-107h66q168 0 242.5 -65.5t74.5 -202.5zM432 376q0 60 -20.5 79.5t-81.5 19.5h-65v-197h66q58 0 79.5 19t21.5 79z" />
    <glyph glyph-name="germandbls" unicode="&#xdf;" horiz-adv-x="672" 
d="M54 0v482q0 281 270 281q106 0 171.5 -53t65.5 -132q0 -33 -17.5 -62.5t-34.5 -50t-17 -31.5q0 -8 16.5 -20t39.5 -28t46 -37.5t39.5 -57t16.5 -78.5q0 -101 -68 -162t-179 -61q-85 0 -131 29l9 156q33 -20 89 -20q83 0 83 52q0 26 -26.5 51t-57.5 42.5t-57.5 47
t-26.5 62.5q0 30 22.5 61.5t45 57t22.5 43.5q0 38 -55 38q-40 0 -57 -24.5t-17 -86.5v-499h-192z" />
    <glyph glyph-name="agrave" unicode="&#xe0;" horiz-adv-x="585" 
d="M393 0l-14 50q-63 -60 -159 -60q-91 0 -141 52t-50 153q0 86 58.5 139.5t159.5 53.5q56 0 103 -13v22q0 35 -23.5 52.5t-77.5 17.5q-81 0 -167 -31l-15 146q93 40 218 40q141 0 198.5 -60.5t57.5 -191.5v-370h-148zM350 191v62q-32 9 -66 9q-75 0 -75 -65q0 -62 64 -62
q32 0 54.5 16t22.5 40zM379 653h-145l-126 146h216z" />
    <glyph glyph-name="aacute" unicode="&#xe1;" horiz-adv-x="585" 
d="M393 0l-14 50q-63 -60 -159 -60q-91 0 -141 52t-50 153q0 86 58.5 139.5t159.5 53.5q56 0 103 -13v22q0 35 -23.5 52.5t-77.5 17.5q-81 0 -167 -31l-15 146q93 40 218 40q141 0 198.5 -60.5t57.5 -191.5v-370h-148zM350 191v62q-32 9 -66 9q-75 0 -75 -65q0 -62 64 -62
q32 0 54.5 16t22.5 40zM247 799h217l-124 -146h-143z" />
    <glyph glyph-name="acircumflex" unicode="&#xe2;" horiz-adv-x="585" 
d="M393 0l-14 50q-63 -60 -159 -60q-91 0 -141 52t-50 153q0 86 58.5 139.5t159.5 53.5q56 0 103 -13v22q0 35 -23.5 52.5t-77.5 17.5q-81 0 -167 -31l-15 146q93 40 218 40q141 0 198.5 -60.5t57.5 -191.5v-370h-148zM350 191v62q-32 9 -66 9q-75 0 -75 -65q0 -62 64 -62
q32 0 54.5 16t22.5 40zM205 799h167l97 -146h-141l-35 69h-6l-36 -69h-141z" />
    <glyph glyph-name="atilde" unicode="&#xe3;" horiz-adv-x="585" 
d="M393 0l-14 50q-63 -60 -159 -60q-91 0 -141 52t-50 153q0 86 58.5 139.5t159.5 53.5q56 0 103 -13v22q0 35 -23.5 52.5t-77.5 17.5q-81 0 -167 -31l-15 146q93 40 218 40q141 0 198.5 -60.5t57.5 -191.5v-370h-148zM350 191v62q-32 9 -66 9q-75 0 -75 -65q0 -62 64 -62
q32 0 54.5 16t22.5 40zM198 661h-87q2 63 32.5 103.5t81.5 40.5q39 0 79 -22.5t57 -22.5q22 0 31 34l86 -1q-2 -64 -33 -103t-81 -39q-39 0 -79.5 22t-56.5 22q-24 0 -30 -34z" />
    <glyph glyph-name="adieresis" unicode="&#xe4;" horiz-adv-x="585" 
d="M393 0l-14 50q-63 -60 -159 -60q-91 0 -141 52t-50 153q0 86 58.5 139.5t159.5 53.5q56 0 103 -13v22q0 35 -23.5 52.5t-77.5 17.5q-81 0 -167 -31l-15 146q93 40 218 40q141 0 198.5 -60.5t57.5 -191.5v-370h-148zM350 191v62q-32 9 -66 9q-75 0 -75 -65q0 -62 64 -62
q32 0 54.5 16t22.5 40zM273 732q0 -73 -78 -73q-40 0 -59 17t-19 56q0 75 78 75t78 -75zM469 732q0 -73 -78 -73q-40 0 -59 17t-19 56q0 75 78 75t78 -75z" />
    <glyph glyph-name="aring" unicode="&#xe5;" horiz-adv-x="585" 
d="M393 0l-14 50q-63 -60 -159 -60q-91 0 -141 52t-50 153q0 86 58.5 139.5t159.5 53.5q56 0 103 -13v22q0 35 -23.5 52.5t-77.5 17.5q-81 0 -167 -31l-15 146q93 40 218 40q141 0 198.5 -60.5t57.5 -191.5v-370h-148zM350 191v62q-32 9 -66 9q-75 0 -75 -65q0 -62 64 -62
q32 0 54.5 16t22.5 40zM151 742q0 95 140 95q141 0 141 -95q0 -50 -33 -72.5t-108 -22.5q-73 0 -106.5 22t-33.5 73zM243 741q0 -14 10.5 -20t40.5 -6q50 0 50 26t-50 26q-29 0 -40 -6t-11 -20z" />
    <glyph glyph-name="ae" unicode="&#xe6;" horiz-adv-x="899" 
d="M285 621q122 0 175 -53q65 54 167 54q114 0 180.5 -72t66.5 -213q0 -44 -5 -86h-335q7 -55 40.5 -78.5t101.5 -23.5q82 0 161 28l21 -151q-86 -37 -206 -37q-148 0 -224 79q-67 -78 -189 -78q-210 0 -210 205q0 86 58.5 139.5t159.5 53.5q56 0 103 -13v22
q0 35 -23.5 52.5t-77.5 17.5q-81 0 -167 -31l-15 146q96 39 218 39zM350 196v57q-32 9 -66 9q-75 0 -75 -65q0 -62 64 -62q33 0 55 16.5t22 44.5zM530 372h168q-3 97 -83 97q-44 0 -62.5 -21t-22.5 -76z" />
    <glyph glyph-name="ccedilla" unicode="&#xe7;" horiz-adv-x="490" 
d="M172 -188l68 182q-214 38 -214 308q0 319 291 319q82 0 145 -24l-10 -156q-54 15 -93 15q-76 0 -104.5 -33.5t-28.5 -120.5q0 -156 129 -156q53 0 100 18l13 -144q-39 -22 -98 -29l-29 -179h-169z" />
    <glyph glyph-name="egrave" unicode="&#xe8;" horiz-adv-x="591" 
d="M344 -11q-318 0 -318 321q0 150 69.5 231t210.5 81q125 0 192.5 -71.5t67.5 -213.5q0 -44 -5 -86h-335q6 -55 40 -78.5t102 -23.5q85 0 161 25l21 -148q-86 -37 -206 -37zM222 372h168q-1 51 -21.5 74t-61.5 23q-44 0 -62.5 -21t-22.5 -76zM395 653h-145l-126 146h216z
" />
    <glyph glyph-name="eacute" unicode="&#xe9;" horiz-adv-x="591" 
d="M344 -11q-318 0 -318 321q0 150 69.5 231t210.5 81q125 0 192.5 -71.5t67.5 -213.5q0 -44 -5 -86h-335q6 -55 40 -78.5t102 -23.5q85 0 161 25l21 -148q-86 -37 -206 -37zM222 372h168q-1 51 -21.5 74t-61.5 23q-44 0 -62.5 -21t-22.5 -76zM263 799h217l-124 -146h-143z
" />
    <glyph glyph-name="ecircumflex" unicode="&#xea;" horiz-adv-x="591" 
d="M344 -11q-318 0 -318 321q0 150 69.5 231t210.5 81q125 0 192.5 -71.5t67.5 -213.5q0 -44 -5 -86h-335q6 -55 40 -78.5t102 -23.5q85 0 161 25l21 -148q-86 -37 -206 -37zM222 372h168q-1 51 -21.5 74t-61.5 23q-44 0 -62.5 -21t-22.5 -76zM221 799h167l97 -146h-141
l-35 69h-6l-36 -69h-141z" />
    <glyph glyph-name="edieresis" unicode="&#xeb;" horiz-adv-x="591" 
d="M344 -11q-318 0 -318 321q0 150 69.5 231t210.5 81q125 0 192.5 -71.5t67.5 -213.5q0 -44 -5 -86h-335q6 -55 40 -78.5t102 -23.5q85 0 161 25l21 -148q-86 -37 -206 -37zM222 372h168q-1 51 -21.5 74t-61.5 23q-44 0 -62.5 -21t-22.5 -76zM276 732q0 -73 -78 -73
q-40 0 -59 17t-19 56q0 75 78 75t78 -75zM472 732q0 -73 -78 -73q-40 0 -59 17t-19 56q0 75 78 75t78 -75z" />
    <glyph glyph-name="igrave" unicode="&#xec;" horiz-adv-x="324" 
d="M260 0h-197v606l197 9v-615zM255 653h-145l-126 146h216z" />
    <glyph glyph-name="iacute" unicode="&#xed;" horiz-adv-x="324" 
d="M260 0h-197v606l197 9v-615zM123 799h217l-124 -146h-143z" />
    <glyph glyph-name="icircumflex" unicode="&#xee;" horiz-adv-x="324" 
d="M260 0h-197v606l197 9v-615zM81 799h167l97 -146h-141l-35 69h-6l-36 -69h-141z" />
    <glyph glyph-name="idieresis" unicode="&#xef;" horiz-adv-x="324" 
d="M260 0h-197v606l197 9v-615zM147 732q0 -73 -78 -73q-40 0 -59 17t-19 56q0 75 78 75t78 -75zM343 732q0 -73 -78 -73q-40 0 -59 17t-19 56q0 75 78 75t78 -75z" />
    <glyph glyph-name="eth" unicode="&#xf0;" horiz-adv-x="631" 
d="M510 714l-68 -38q74 -74 118.5 -163t44.5 -177q0 -184 -70.5 -265.5t-217.5 -81.5q-66 0 -116 14t-91 46t-62.5 90t-21.5 141q0 127 62 193.5t176 66.5q63 0 109 -20l2 2q-30 42 -70 80l-87 -48l-66 71l71 40q-37 24 -79 46l135 84q42 -22 82 -50l86 49zM226 273
q0 -76 20 -103.5t64 -27.5q50 0 72 34.5t23 116.5q0 49 -23.5 70.5t-69.5 21.5q-48 0 -67 -24.5t-19 -87.5z" />
    <glyph glyph-name="ntilde" unicode="&#xf1;" horiz-adv-x="634" 
d="M589 0h-193v382q0 41 -18 59.5t-56 18.5q-53 0 -80 -35v-425h-192v608l138 8l27 -48q69 55 162 55q98 0 155 -63t57 -178v-382zM233 661h-87q2 63 32.5 103.5t81.5 40.5q39 0 79 -22.5t57 -22.5q22 0 31 34l86 -1q-2 -64 -33 -103t-81 -39q-39 0 -79.5 22t-56.5 22
q-24 0 -30 -34z" />
    <glyph glyph-name="ograve" unicode="&#xf2;" horiz-adv-x="630" 
d="M604 303q0 -168 -68.5 -242.5t-220.5 -74.5q-151 0 -220 75t-69 242t69.5 243.5t220.5 76.5t219.5 -76t68.5 -244zM226 303q0 -99 19.5 -133t70.5 -34t70 34t19 133q0 100 -19 133.5t-70 33.5q-52 0 -71 -33.5t-19 -133.5zM405 653h-145l-126 146h216z" />
    <glyph glyph-name="oacute" unicode="&#xf3;" horiz-adv-x="630" 
d="M604 303q0 -168 -68.5 -242.5t-220.5 -74.5q-151 0 -220 75t-69 242t69.5 243.5t220.5 76.5t219.5 -76t68.5 -244zM226 303q0 -99 19.5 -133t70.5 -34t70 34t19 133q0 100 -19 133.5t-70 33.5q-52 0 -71 -33.5t-19 -133.5zM273 799h217l-124 -146h-143z" />
    <glyph glyph-name="ocircumflex" unicode="&#xf4;" horiz-adv-x="630" 
d="M604 303q0 -168 -68.5 -242.5t-220.5 -74.5q-151 0 -220 75t-69 242t69.5 243.5t220.5 76.5t219.5 -76t68.5 -244zM226 303q0 -99 19.5 -133t70.5 -34t70 34t19 133q0 100 -19 133.5t-70 33.5q-52 0 -71 -33.5t-19 -133.5zM231 799h167l97 -146h-141l-35 69h-6l-36 -69
h-141z" />
    <glyph glyph-name="otilde" unicode="&#xf5;" horiz-adv-x="630" 
d="M604 303q0 -168 -68.5 -242.5t-220.5 -74.5q-151 0 -220 75t-69 242t69.5 243.5t220.5 76.5t219.5 -76t68.5 -244zM226 303q0 -99 19.5 -133t70.5 -34t70 34t19 133q0 100 -19 133.5t-70 33.5q-52 0 -71 -33.5t-19 -133.5zM224 661h-87q2 63 32.5 103.5t81.5 40.5
q39 0 79 -22.5t57 -22.5q22 0 31 34l86 -1q-2 -64 -33 -103t-81 -39q-39 0 -79.5 22t-56.5 22q-24 0 -30 -34z" />
    <glyph glyph-name="odieresis" unicode="&#xf6;" horiz-adv-x="630" 
d="M604 303q0 -168 -68.5 -242.5t-220.5 -74.5q-151 0 -220 75t-69 242t69.5 243.5t220.5 76.5t219.5 -76t68.5 -244zM226 303q0 -99 19.5 -133t70.5 -34t70 34t19 133q0 100 -19 133.5t-70 33.5q-52 0 -71 -33.5t-19 -133.5zM295 732q0 -73 -78 -73q-40 0 -59 17t-19 56
q0 75 78 75t78 -75zM491 732q0 -73 -78 -73q-40 0 -59 17t-19 56q0 75 78 75t78 -75z" />
    <glyph glyph-name="divide" unicode="&#xf7;" horiz-adv-x="605" 
d="M419 538q0 -87 -116 -87q-59 0 -87.5 19.5t-28.5 67.5q0 88 116 88t116 -88zM419 130q0 -86 -116 -86q-59 0 -87.5 19t-28.5 67q0 89 116 89t116 -89zM552 249h-499v170h499v-170z" />
    <glyph glyph-name="oslash" unicode="&#xf8;" horiz-adv-x="630" 
d="M105 -19l-79 70l41 49q-41 72 -41 203q0 167 69.5 243.5t220.5 76.5q104 0 168 -36l36 43l79 -70l-39 -47q44 -75 44 -210q0 -168 -68.5 -242.5t-220.5 -74.5q-110 0 -174 38zM405 303q0 26 1 38l-2 1l-54 -61l-104 -112q18 -33 70 -33q51 0 70 34t19 133zM226 303v-26h3
l51 59l101 108q-18 26 -65 26q-52 0 -71 -33.5t-19 -133.5z" />
    <glyph glyph-name="ugrave" unicode="&#xf9;" horiz-adv-x="628" 
d="M584 612v-389q0 -234 -270 -234q-269 0 -269 234v389h192v-386q0 -73 78 -73q40 0 58 17.5t18 55.5v386h193zM404 653h-145l-126 146h216z" />
    <glyph glyph-name="uacute" unicode="&#xfa;" horiz-adv-x="628" 
d="M584 612v-389q0 -234 -270 -234q-269 0 -269 234v389h192v-386q0 -73 78 -73q40 0 58 17.5t18 55.5v386h193zM272 799h217l-124 -146h-143z" />
    <glyph glyph-name="ucircumflex" unicode="&#xfb;" horiz-adv-x="628" 
d="M584 612v-389q0 -234 -270 -234q-269 0 -269 234v389h192v-386q0 -73 78 -73q40 0 58 17.5t18 55.5v386h193zM230 799h167l97 -146h-141l-35 69h-6l-36 -69h-141z" />
    <glyph glyph-name="udieresis" unicode="&#xfc;" horiz-adv-x="628" 
d="M584 612v-389q0 -234 -270 -234q-269 0 -269 234v389h192v-386q0 -73 78 -73q40 0 58 17.5t18 55.5v386h193zM294 732q0 -73 -78 -73q-40 0 -59 17t-19 56q0 75 78 75t78 -75zM490 732q0 -73 -78 -73q-40 0 -59 17t-19 56q0 75 78 75t78 -75z" />
    <glyph glyph-name="yacute" unicode="&#xfd;" horiz-adv-x="663" 
d="M177 -35q66 0 87 49l2 6l-260 592h218l108 -326l24 -77h3l17 79l77 324h204l-202 -598q-35 -97 -94 -141.5t-149 -44.5q-60 0 -110 19l14 130q29 -12 61 -12zM296 799h217l-124 -146h-143z" />
    <glyph glyph-name="thorn" unicode="&#xfe;" horiz-adv-x="638" 
d="M612 307q0 -154 -63.5 -235.5t-171.5 -81.5q-77 0 -129 38l-3 -1l2 -81v-103h-193v930l192 9v-129l-2 -80l3 -2q62 51 144 51q108 0 164.5 -74t56.5 -241zM412 308q0 89 -18.5 120t-67.5 31q-53 0 -79 -39v-236q27 -41 76 -41q45 0 67 34t22 131z" />
    <glyph glyph-name="ydieresis" unicode="&#xff;" horiz-adv-x="663" 
d="M177 -35q66 0 87 49l2 6l-260 592h218l108 -326l24 -77h3l17 79l77 324h204l-202 -598q-35 -97 -94 -141.5t-149 -44.5q-60 0 -110 19l14 130q29 -12 61 -12zM313 732q0 -73 -78 -73q-40 0 -59 17t-19 56q0 75 78 75t78 -75zM509 732q0 -73 -78 -73q-40 0 -59 17t-19 56
q0 75 78 75t78 -75z" />
    <glyph glyph-name="dotlessi" unicode="&#x131;" horiz-adv-x="324" 
d="M260 0h-197v606l197 9v-615z" />
    <glyph glyph-name="Lslash" unicode="&#x141;" horiz-adv-x="605" 
d="M307 180h283l-4 -180h-490v269l-65 -26l-14 158l79 32v317h211v-240l165 66l18 -165l-183 -69v-162z" />
    <glyph glyph-name="lslash" unicode="&#x142;" horiz-adv-x="382" 
d="M21 293l-1 158l72 32v290l195 9v-221l77 36v-154l-77 -37v-406h-195v326z" />
    <glyph glyph-name="OE" unicode="&#x152;" horiz-adv-x="1055" 
d="M1024 0h-509v43l-2 1q-64 -58 -178 -58q-302 0 -302 389q0 197 76 292t229 95q107 0 175 -53l2 1v40h495l4 -177h-310v-110h256v-160h-256v-128h324zM499 375q0 126 -25.5 166.5t-98.5 40.5q-71 0 -96.5 -41.5t-25.5 -165.5q0 -125 26 -167.5t98 -42.5q71 0 96.5 42.5
t25.5 167.5z" />
    <glyph glyph-name="oe" unicode="&#x153;" horiz-adv-x="970" 
d="M730 -11q-151 0 -220 73q-61 -76 -209 -76q-141 0 -208 75.5t-67 241.5t67.5 243t207.5 77t204 -70q63 69 187 69q120 0 186.5 -71.5t66.5 -213.5q0 -36 -6 -86h-334q6 -55 40 -78.5t102 -23.5q82 0 161 28l21 -151q-86 -37 -199 -37zM226 303q0 -99 19.5 -133t71.5 -34
q51 0 69.5 34t18.5 133q0 100 -18.5 133.5t-70.5 33.5t-71 -33.5t-19 -133.5zM601 372h167q-1 51 -21.5 74t-60.5 23q-44 0 -62.5 -21t-22.5 -76z" />
    <glyph glyph-name="Scaron" unicode="&#x160;" horiz-adv-x="583" 
d="M562 230q0 -113 -78 -178.5t-213 -65.5q-132 0 -239 55l26 173q108 -54 211 -54q93 0 93 57q0 21 -24.5 37t-61 26.5t-79 29t-79 42t-61 68t-24.5 103.5q0 106 71.5 173t214.5 67q121 0 218 -38l-24 -169q-99 29 -182 29q-56 0 -76.5 -13t-20.5 -38q0 -21 24.5 -37.5
t60.5 -26.5t79 -28t79 -41t60.5 -67.5t24.5 -103.5zM418 790h-204l-99 122h164l38 -49l39 49h163z" />
    <glyph glyph-name="scaron" unicode="&#x161;" horiz-adv-x="500" 
d="M475 198q0 -99 -59.5 -154.5t-184.5 -55.5q-115 0 -194 38l19 152q75 -39 174 -39q67 0 67 42q0 18 -20 30t-49.5 18.5t-64 20t-64 31.5t-49.5 55t-20 88q0 89 61.5 143.5t181.5 54.5q94 0 178 -34l-14 -150q-74 29 -167 29q-56 0 -56 -35q0 -17 19.5 -28.5t48.5 -18
t62.5 -19.5t62.5 -30.5t48.5 -53t19.5 -84.5zM345 653h-168l-94 146h140l35 -75h6l35 75h143z" />
    <glyph glyph-name="Ydieresis" unicode="&#x178;" horiz-adv-x="714" 
d="M-3 750h234l102 -253l29 -75h3l27 76l98 252h228l-251 -518v-232h-214v232zM337 856q0 -69 -77 -69q-40 0 -58.5 16t-18.5 53q0 71 77 71t77 -71zM540 856q0 -69 -78 -69q-39 0 -58 16t-19 53q0 71 77 71q78 0 78 -71z" />
    <glyph glyph-name="Zcaron" unicode="&#x17d;" horiz-adv-x="618" 
d="M585 0h-558v131l259 372l47 64l-1 2h-299l6 181h545v-146l-250 -358l-47 -63l1 -3h300zM420 790h-204l-99 122h164l38 -49l39 49h163z" />
    <glyph glyph-name="zcaron" unicode="&#x17e;" horiz-adv-x="536" 
d="M498 482l-198 -265l-49 -61l1 -3h256l-4 -153h-473v130l197 264l49 62l-1 2h-239l6 154h455v-130zM355 653h-168l-94 146h140l35 -75h6l35 75h143z" />
    <glyph glyph-name="florin" unicode="&#x192;" horiz-adv-x="438" 
d="M156 -156h-192l135 626h-62l30 141h61l6 31q14 66 76.5 110t162.5 44q52 0 100 -13l-37 -120q-23 6 -49 6q-54 0 -60 -32l-5 -26h111l-30 -141h-112z" />
    <glyph glyph-name="circumflex" unicode="&#x2c6;" horiz-adv-x="409" 
d="M121 799h167l97 -146h-141l-35 69h-6l-36 -69h-141z" />
    <glyph glyph-name="caron" unicode="&#x2c7;" horiz-adv-x="409" 
d="M290 653h-168l-94 146h140l35 -75h6l35 75h143z" />
    <glyph glyph-name="breve" unicode="&#x2d8;" horiz-adv-x="409" 
d="M245 799h130q0 -155 -171 -155q-92 0 -131 39.5t-39 115.5h127q1 -62 43 -62q41 0 41 62z" />
    <glyph glyph-name="dotaccent" unicode="&#x2d9;" horiz-adv-x="409" 
d="M310 732q0 -74 -105 -74q-54 0 -79 17t-25 57q0 75 104 75q105 0 105 -75z" />
    <glyph glyph-name="ring" unicode="&#x2da;" horiz-adv-x="409" 
d="M66 742q0 95 140 95q141 0 141 -95q0 -50 -33 -72.5t-108 -22.5q-73 0 -106.5 22t-33.5 73zM158 741q0 -14 10.5 -20t40.5 -6q50 0 50 26t-50 26q-29 0 -40 -6t-11 -20z" />
    <glyph glyph-name="ogonek" unicode="&#x2db;" horiz-adv-x="409" 
d="M274 -192q-66 0 -100 26t-34 70q0 88 115 121l76 -25q-47 -12 -47 -48q0 -32 46 -32q24 0 43 9l15 -96q-48 -25 -114 -25z" />
    <glyph glyph-name="tilde" unicode="&#x2dc;" horiz-adv-x="409" 
d="M115 661h-87q2 63 32.5 103.5t81.5 40.5q39 0 79 -22.5t57 -22.5q22 0 31 34l86 -1q-2 -64 -33 -103t-81 -39q-39 0 -79.5 22t-56.5 22q-24 0 -30 -34z" />
    <glyph glyph-name="hungarumlaut" unicode="&#x2dd;" horiz-adv-x="409" 
d="M87 799h191l-108 -146h-122zM305 799h195l-124 -146h-139z" />
    <glyph glyph-name="mu" unicode="&#x3bc;" horiz-adv-x="633" 
d="M326 -9q-71 0 -108 55l-2 -1q10 -131 18 -196l-184 -14v777h192v-386q0 -32 21.5 -51.5t57.5 -19.5q75 0 75 67v390h193v-607l-137 -11l-22 37q-43 -40 -104 -40z" />
    <glyph glyph-name="endash" unicode="&#x2013;" horiz-adv-x="506" 
d="M41 409h424v-133h-424v133z" />
    <glyph glyph-name="emdash" unicode="&#x2014;" horiz-adv-x="691" 
d="M41 409h609v-133h-609v133z" />
    <glyph glyph-name="quoteleft" unicode="&#x2018;" horiz-adv-x="266" 
d="M135 491q-105 0 -105 108q0 44 31.5 110t70.5 111l69 -16l-26 -120q25 -12 43.5 -36.5t18.5 -53.5q0 -103 -102 -103z" />
    <glyph glyph-name="quoteright" unicode="&#x2019;" horiz-adv-x="267" 
d="M131 777q106 0 106 -108q0 -44 -32 -110t-71 -111l-68 16l25 120q-25 12 -43.5 36.5t-18.5 54.5q0 102 102 102z" />
    <glyph glyph-name="quotesinglbase" unicode="&#x201a;" horiz-adv-x="267" 
d="M131 183q106 0 106 -108q0 -44 -32 -110t-71 -111l-68 16l25 120q-25 12 -43.5 36.5t-18.5 54.5q0 102 102 102z" />
    <glyph glyph-name="quotedblleft" unicode="&#x201c;" horiz-adv-x="505" 
d="M135 491q-105 0 -105 108q0 44 31.5 110t70.5 111l69 -16l-26 -120q25 -12 43.5 -36.5t18.5 -53.5q0 -103 -102 -103zM374 491q-106 0 -106 109q0 44 31.5 109.5t70.5 111.5l69 -17l-25 -119q25 -13 43.5 -37.5t18.5 -53.5q0 -47 -25 -75t-77 -28z" />
    <glyph glyph-name="quotedblright" unicode="&#x201d;" horiz-adv-x="505" 
d="M131 774q106 0 106 -108q0 -44 -32 -110t-71 -111l-68 16l25 120q-25 12 -43.5 36.5t-18.5 54.5q0 102 102 102zM369 775q106 0 106 -108q0 -44 -32 -110t-71 -111l-68 16l25 120q-25 12 -43.5 36.5t-18.5 54.5q0 102 102 102z" />
    <glyph glyph-name="quotedblbase" unicode="&#x201e;" horiz-adv-x="505" 
d="M370 183q106 0 106 -108q0 -44 -32 -110t-71 -111l-68 16l25 120q-25 12 -43.5 36.5t-18.5 54.5q0 102 102 102zM131 183q106 0 106 -108q0 -44 -32 -110t-71 -111l-68 16l25 120q-25 12 -43.5 36.5t-18.5 54.5q0 102 102 102z" />
    <glyph glyph-name="dagger" unicode="&#x2020;" horiz-adv-x="486" 
d="M20 621l143 -13l-16 174h191l-14 -174l142 13v-172l-142 12l14 -609h-191l16 609l-143 -12v172z" />
    <glyph glyph-name="daggerdbl" unicode="&#x2021;" horiz-adv-x="486" 
d="M466 193v-172l-142 13l14 -182h-191l16 182l-143 -13v172l145 -11l-2 279l-143 -12v172l143 -13l-16 174h191l-14 -174l142 13v-172l-142 12v-279z" />
    <glyph glyph-name="bullet" unicode="&#x2022;" horiz-adv-x="418" 
d="M36 322q0 172 170 172q173 0 173 -172q0 -173 -173 -173q-170 0 -170 173z" />
    <glyph glyph-name="ellipsis" unicode="&#x2026;" horiz-adv-x="791" 
d="M758 87q0 -99 -107 -99q-57 0 -82 23t-25 76q0 100 107 100t107 -100zM505 87q0 -99 -107 -99q-57 0 -82 23t-25 76q0 100 107 100t107 -100zM247 87q0 -99 -107 -99q-57 0 -82 23t-25 76q0 100 107 100t107 -100z" />
    <glyph glyph-name="perthousand" unicode="&#x2030;" horiz-adv-x="1101" 
d="M348 583q0 -87 -42 -131.5t-123 -44.5q-162 0 -162 176q0 90 39 132t124 42q83 0 123.5 -41.5t40.5 -132.5zM221 583q0 35 -8.5 48t-28.5 13t-28.5 -13t-8.5 -48q0 -34 9 -47t28 -13q20 0 28.5 12.5t8.5 47.5zM527 705l109 -85l-419 -586l-108 85zM735 164
q0 -86 -42 -130.5t-123 -44.5q-162 0 -162 175q0 91 39 134t124 43q82 0 123 -42.5t41 -134.5zM608 164q0 34 -8.5 46.5t-28.5 12.5t-28.5 -12.5t-8.5 -46.5t8.5 -46.5t28.5 -12.5t28.5 12.5t8.5 46.5zM1080 164q0 -86 -42 -130.5t-123 -44.5q-162 0 -162 175q0 91 39 134
t124 43q82 0 123 -42.5t41 -134.5zM954 164q0 34 -9 46.5t-29 12.5t-28.5 -12.5t-8.5 -46.5t8.5 -46.5t28.5 -12.5t29 12.5t9 46.5z" />
    <glyph glyph-name="guilsinglleft" unicode="&#x2039;" horiz-adv-x="388" 
d="M348 409l-141 -92l141 -91v-142l-326 227v13l326 227v-142z" />
    <glyph glyph-name="guilsinglright" unicode="&#x203a;" horiz-adv-x="388" 
d="M39 84v142l141 91l-141 92v142l327 -227v-13z" />
    <glyph glyph-name="fraction" unicode="&#x2044;" horiz-adv-x="318" 
d="M362 750h134l-494 -750h-133z" />
    <glyph glyph-name="Euro" unicode="&#x20ac;" horiz-adv-x="593" 
d="M476 350l-21 -95h-161q16 -60 53.5 -85t98.5 -25q49 0 107 23l14 -142q-70 -36 -172 -36q-259 0 -303 265h-77l1 95h66v36h-66l-1 100h76q24 125 105.5 196.5t206.5 71.5q94 0 163 -28l-35 -155q-37 14 -83 14q-62 0 -99 -23.5t-53 -75.5h212l-21 -99l-205 -1v-36h194z
" />
    <glyph glyph-name="trademark" unicode="&#x2122;" horiz-adv-x="710" 
d="M686 460h-100v80l2 81l-3 1l-25 -78l-28 -84h-81l-29 81l-25 78l-2 -1l1 -80v-78h-98v294h142l30 -88l24 -77h3l23 77l29 88h137v-294zM273 658h-72v-198h-116v198h-73v96h261v-96z" />
    <glyph glyph-name="minus" unicode="&#x2212;" horiz-adv-x="605" 
d="M541 249h-477v170h477v-170z" />
    <glyph glyph-name="fi" unicode="&#xfb01;" horiz-adv-x="720" 
d="M276 474v-474h-192v474h-69v138h68v24q0 70 55 117t161 47q53 0 93 -11l-5 -121q-28 4 -46 4q-65 0 -65 -40v-20h378v-612h-196v474h-182zM662 732q0 -74 -104 -74q-55 0 -80 17t-25 57q0 75 105 75q104 0 104 -75z" />
    <glyph glyph-name="fl" unicode="&#xfb02;" horiz-adv-x="685" 
d="M628 0h-194v670q-46 7 -73 7q-48 0 -66.5 -13t-18.5 -40v-12h81v-138h-81v-474h-192v474h-69v138h68v19q0 76 65 123t215 47q51 0 135.5 -9t129.5 -11v-781z" />
    <glyph glyph-name="CR" horiz-adv-x="245" 
 />
  </font>
</defs>
</svg>
